<?xml version="1.0" encoding="UTF-8" standalone="no"?>
<!DOCTYPE svg PUBLIC "-//W3C//DTD SVG 1.1//EN" "http://www.w3.org/Graphics/SVG/1.1/DTD/svg11.dtd">
<svg width="100%" height="100%" viewBox="0 0 151 93" version="1.1" xmlns="http://www.w3.org/2000/svg" xmlns:xlink="http://www.w3.org/1999/xlink" xml:space="preserve" xmlns:serif="http://www.serif.com/" style="fill-rule:evenodd;clip-rule:evenodd;stroke-linejoin:round;stroke-miterlimit:1.41421;">
    <g transform="matrix(1,0,0,1,-3114.79,-1546.53)">
        <g transform="matrix(1,0,0,1,32.0457,1002.57)">
            <g id="Film" transform="matrix(1,0,0,1,2002.26,543.955)">
                <g transform="matrix(1,0,0,1,-10,-101.127)">
                    <path d="M1241.48,193.711L1090.48,193.711L1090.48,101.127L1094.9,101.127L1094.9,109.711L1106.9,109.711L1106.9,101.127L1225.9,101.127L1225.9,109.711L1237.9,109.711L1237.9,101.127L1241.48,101.127L1241.48,193.711ZM1106.9,193.711L1094.9,193.711L1106.9,193.711ZM1237.9,193.711L1225.9,193.711L1237.9,193.711ZM1106.9,177.711L1094.9,177.711L1094.9,189.711L1106.9,189.711L1106.9,177.711ZM1237.9,177.711L1225.9,177.711L1225.9,189.711L1237.9,189.711L1237.9,177.711ZM1106.9,161.711L1094.9,161.711L1094.9,173.711L1106.9,173.711L1106.9,161.711ZM1237.9,161.711L1225.9,161.711L1225.9,173.711L1237.9,173.711L1237.9,161.711ZM1237.9,145.711L1225.9,145.711L1225.9,157.711L1237.9,157.711L1237.9,145.711ZM1106.9,145.711L1094.9,145.711L1094.9,157.711L1106.9,157.711L1106.9,145.711ZM1237.9,129.711L1225.9,129.711L1225.9,141.711L1237.9,141.711L1237.9,129.711ZM1106.9,129.711L1094.9,129.711L1094.9,141.711L1106.9,141.711L1106.9,129.711ZM1237.9,113.711L1225.9,113.711L1225.9,125.711L1237.9,125.711L1237.9,113.711ZM1106.9,113.711L1094.9,113.711L1094.9,125.711L1106.9,125.711L1106.9,113.711Z" style="fill:rgb(105,72,69);"/>
                </g>
                <g transform="matrix(0.790351,0,0,0.899173,222.119,-90.4297)">
                    <rect x="1111.36" y="101.589" width="141.322" height="99.375" style="fill:rgb(64,36,33);"/>
                </g>
            </g>
        </g>
        <g transform="matrix(1,0,0,1,32.0457,1002.57)">
            <g id="Blue-Jay" serif:id="Blue Jay" transform="matrix(0.85322,0,0,0.814161,1633.36,408.764)">
                <g transform="matrix(0.372948,0,0,0.436846,1043.98,-4.35429)">
                    <path d="M1988.98,513.71L2012.23,518.232L2048.65,491.82L2094.57,507.812L2079.47,575.47L2038.9,614.029L1992.47,631.985L1965.66,621.852L1944.96,614.029L1905.48,575.47L1890.37,507.812L1936.3,491.82L1972.71,518.232L1988.98,513.71Z" style="fill:rgb(149,149,149);"/>
                </g>
                <g transform="matrix(0.436846,0,0,0.436846,923.192,-4.35429)">
                    <path d="M1969.29,548.89L1958.2,546.641L1958.2,517.448L1927.75,492.556L1898.12,492.556L1914.24,471.84L1923.22,454.692L1927.75,442.978L1929.66,447.286L1933.19,447.286L1938.85,432.808L1944.31,427.474L1946.18,434.586L1952.47,432.808L1952.47,427.474L1958.2,417.898L1958.2,424.898L1962.85,421.753L1967.08,413.847L1977.82,402.374L1988.55,413.847L1992.78,421.753L1997.43,424.898L1997.43,417.898L2003.16,427.474L2003.16,432.808L2009.45,434.586L2011.32,427.474L2016.78,432.808L2022.44,447.286L2025.97,447.286L2027.88,442.978L2031.87,454.692L2041.39,471.84L2057.51,492.556L2027.88,492.556L1997.43,517.448L1997.43,546.641L1986.34,548.89L1983.22,523.798L1977.82,520.488L1972.41,523.798L1969.29,548.89Z" style="fill:rgb(149,149,149);"/>
                </g>
                <g transform="matrix(0.436846,0,0,0.436846,923.192,-4.35429)">
                    <path d="M1979.56,425.804L1985.04,445.417L1998.05,438.273L1993.54,452.647L2009.64,450.085L2002.09,469.157L2012.33,469.157L2030.82,457.822L2002.09,490.121L1995.45,518.639L1978.08,532.225L1972.82,527.314L1960.72,517.845L1954.08,489.327L1927.69,457.822L1941.97,469.157L1954.08,468.363L1946.53,449.291L1962.63,451.853L1958.12,437.479L1971.13,444.623L1977.72,421.026L1977.82,420.501L1977.87,420.501L1978.09,419.707L1978.35,419.707L1979.56,425.804Z" style="fill:rgb(149,149,149);"/>
                </g>
                <g transform="matrix(0.436846,0,0,0.436846,923.192,-4.35429)">
                    <path d="M1909.48,521.909L1959.21,543.949L1975.63,558.22L1976.98,559.2L1993.39,544.949L2043.11,522.909L2060.34,522.909L2051.44,535.27L2044.88,551.467L2029.53,556.788L2003.83,556.788L1999.52,565.135L1999.52,575.592L2001.57,577.085L2004.44,580.038L2008.42,581.612L2017.64,587.587L2027.34,603.555L2019.66,612.72L2002.13,618.43L1994.6,621.889L1981.07,625.292L1978.64,626.081L1978.29,625.991L1973.95,627.081L1932.93,613.72L1925.26,604.555L1934.51,587.587L1944.18,580.612L1951.59,577.676L1953.08,576.592L1953.08,564.135L1948.76,555.788L1921.74,556.788L1907.72,550.467L1901.15,534.27L1892.26,521.909L1909.48,521.909Z" style="fill:rgb(149,149,149);"/>
                </g>
                <g transform="matrix(0.436846,0,0,0.436846,923.192,-4.35429)">
                    <path d="M1977.82,631.435L1962.5,625.816L1934.85,615.694L1900.99,574.796L1889.38,505.609L1898.24,491.988L1930.27,491.988L1962.5,517.821L1968.91,533.402L1968.91,548.165L1972.61,550.918L1975.77,549.24L1979.21,549.24L1982.41,551.448L1986.81,548.165L1986.81,533.402L1993.22,517.821L2025.46,491.988L2057.49,491.988L2066.35,505.609L2054.73,574.796L2020.87,615.694L1993.22,625.816L1977.9,631.435L1977.9,631.463L1977.86,631.449L1977.83,631.463L1977.82,631.435ZM1934.85,497.755L1918.22,497.755L1898.24,511.002L1909.93,548.165L1907,574.796L1938.4,611.766L1968.91,615.694L1977.26,625.816L1971.6,572.593L1973.79,568.888L1973.3,561.399L1950.84,552.322L1938.4,541.029L1930.27,541.029L1918.22,536.687L1913.14,522.742L1902.85,525.65L1901.27,520.644L1902.85,517.821L1909.93,511.002L1930.27,511.002L1938.4,514.109L1946.15,522.742L1954.71,541.193L1954.71,522.742L1934.85,497.755ZM2054.45,520.644L2057.49,511.002L2037.5,497.755L2020.87,497.755L2001.01,522.742L2001.01,541.193L2009.58,522.742L2017.32,514.109L2025.46,511.002L2045.8,511.002L2052.88,517.821L2054.45,520.644L2052.88,525.65L2042.58,522.742L2037.5,536.687L2025.46,541.029L2017.32,541.029L2004.89,552.322L1982.42,561.399L1981.94,568.888L1984.12,572.593L1978.46,625.816L1986.81,615.694L2017.32,611.766L2048.73,574.796L2045.8,548.165L2052.88,525.65L2054.45,520.644Z" style="fill:rgb(149,149,149);"/>
                </g>
                <g transform="matrix(0.436846,0,0,0.436846,923.192,-4.35429)">
                    <path d="M1931.76,516.182L1925.44,516.182L1920.05,517.376L1920.05,527.541L1925.44,532.11L1931.76,534.921L1937.38,532.11L1937.38,523.209L1931.76,516.182Z" style="fill:rgb(149,149,149);"/>
                </g>
                <g transform="matrix(-0.436846,0,0,0.436846,2650.8,-3.83379)">
                    <path d="M1931.76,516.182L1925.44,516.182L1920.05,517.376L1920.05,527.541L1925.44,532.11L1931.76,534.921L1937.38,532.11L1937.38,523.209L1931.76,516.182Z" style="fill:rgb(149,149,149);"/>
                </g>
                <g transform="matrix(0.191938,0,0,0.191938,1394.35,122.779)">
                    <path d="M1931.76,516.182L1925.44,516.182L1920.05,517.376L1920.05,527.541L1925.44,532.11L1931.76,534.921L1937.38,532.11L1937.38,523.209L1931.76,516.182Z" style="fill:rgb(149,149,149);"/>
                </g>
                <g transform="matrix(-0.191938,0,0,0.191938,2177.65,123.603)">
                    <path d="M1931.76,516.182L1925.44,516.182L1920.05,517.376L1920.05,527.541L1925.44,532.11L1931.76,534.921L1937.38,532.11L1937.38,523.209L1931.76,516.182Z" style="fill:rgb(149,149,149);"/>
                </g>
                <g transform="matrix(0.436846,0,0,-0.436846,923.205,512.092)">
                    <path d="M1985.3,555.169L1981.63,550.425L1974.78,550.425L1969.83,555.169L1954.15,603.431L1978.49,600.647L2002.21,603.431L1985.3,555.169Z" style="fill:rgb(149,149,149);"/>
                </g>
                <g transform="matrix(0.373979,0,0,-0.373979,1047.57,474.948)">
                    <path d="M1985.3,554.001L1981.63,549.257L1974.78,549.257L1969.83,554.001L1954.15,603.431L1978.49,600.647L2002.21,603.431L1985.3,554.001Z" style="fill:rgb(149,149,149);"/>
                </g>
                <g transform="matrix(0.373979,0,0,-0.373979,1047.57,474.948)">
                    <path d="M1985.3,557.339L1981.63,552.595L1974.78,552.595L1969.83,557.339L1954.15,603.431L1978.49,600.647L2002.21,603.431L1985.3,557.339Z" style="fill:rgb(149,149,149);"/>
                </g>
                <g transform="matrix(0.436846,0,0,0.436846,923.192,-4.35429)">
                    <path d="M1980.29,600.647L1974.81,600.647L1969.86,596.521L1952.86,576.825L1955.54,568.149L1960.8,568.149L1965.37,563.157L1969.86,555.169L1974.81,550.425L1980.29,550.425L1985.24,555.169L1989.73,563.157L1994.3,568.149L1999.56,568.149L2002.24,576.825L1985.24,596.521L1980.29,600.647Z" style="fill:rgb(149,149,149);"/>
                </g>
                <g transform="matrix(0.436846,0,0,0.436846,923.192,-4.35429)">
                    <path d="M1980.29,600.647L1974.81,600.647L1969.86,596.521L1952.86,576.825L1955.54,568.149L1955.54,576.825L1969.86,590.344L1974.81,593.681L1980.29,593.681L1985.24,590.344L1997.11,576.825L1999.56,568.149L2002.24,576.825L1985.24,596.521L1980.29,600.647Z" style="fill:rgb(149,149,149);"/>
                </g>
                <g transform="matrix(0.401218,0,0,0.401218,961.923,32.6742)">
                    <path d="M2043.91,523.326L2040.05,527.429L2043.91,529.619L2053.64,542.992L2046.89,523.326L2043.91,523.326Z" style="fill:rgb(149,149,149);"/>
                </g>
                <g transform="matrix(-0.401218,0,0,0.401218,2612.41,32.6742)">
                    <path d="M2043.91,523.326L2040.05,527.429L2043.91,529.619L2053.64,542.992L2046.89,523.326L2043.91,523.326Z" style="fill:rgb(149,149,149);"/>
                </g>
                <g transform="matrix(0.436846,0,0,0.436846,923.192,-4.35429)">
                    <path d="M1980.82,583.84L1979.54,583.84L1977.84,583.379L1975.69,583.84L1974.81,583.379L1968.02,572.937L1964.8,566.639L1972.61,555.169L1974.81,552.262L1980.29,552.262L1982.48,555.169L1990.71,566.639L1987.63,572.937L1980.82,583.84Z" style="fill:rgb(149,149,149);"/>
                </g>
                <g transform="matrix(0.436846,0,0,0.436846,923.192,-4.35429)">
                    <path d="M1980.29,580.166L1978.45,579.738L1977.6,579.54L1976.87,579.705L1974.81,580.166L1970.25,572.937L1967.1,565.388L1972.61,555.169L1974.81,552.262L1980.29,552.262L1982.48,555.169L1988.27,565.388L1986.05,572.937L1980.29,580.166Z" style="fill:rgb(149,149,149);"/>
                </g>
            </g>
        </g>
    </g>
</svg>
