<?xml version="1.0" encoding="UTF-8" standalone="no"?>
<!DOCTYPE svg PUBLIC "-//W3C//DTD SVG 1.1//EN" "http://www.w3.org/Graphics/SVG/1.1/DTD/svg11.dtd">
<svg width="100%" height="100%" viewBox="0 0 151 93" version="1.1" xmlns="http://www.w3.org/2000/svg" xmlns:xlink="http://www.w3.org/1999/xlink" xml:space="preserve" xmlns:serif="http://www.serif.com/" style="fill-rule:evenodd;clip-rule:evenodd;stroke-linejoin:round;stroke-miterlimit:1.41421;">
    <g transform="matrix(1,0,0,1,-2817.59,-2145.62)">
        <g transform="matrix(1,0,0,1,32.0457,1002.57)">
            <g id="Film" transform="matrix(1,0,0,1,1705.07,1143.05)">
                <g transform="matrix(1,0,0,1,-10,-101.127)">
                    <path d="M1241.48,193.711L1090.48,193.711L1090.48,101.127L1094.9,101.127L1094.9,109.711L1106.9,109.711L1106.9,101.127L1225.9,101.127L1225.9,109.711L1237.9,109.711L1237.9,101.127L1241.48,101.127L1241.48,193.711ZM1106.9,193.711L1094.9,193.711L1106.9,193.711ZM1237.9,193.711L1225.9,193.711L1237.9,193.711ZM1106.9,177.711L1094.9,177.711L1094.9,189.711L1106.9,189.711L1106.9,177.711ZM1237.9,177.711L1225.9,177.711L1225.9,189.711L1237.9,189.711L1237.9,177.711ZM1106.9,161.711L1094.9,161.711L1094.9,173.711L1106.9,173.711L1106.9,161.711ZM1237.9,161.711L1225.9,161.711L1225.9,173.711L1237.9,173.711L1237.9,161.711ZM1237.9,145.711L1225.9,145.711L1225.9,157.711L1237.9,157.711L1237.9,145.711ZM1106.9,145.711L1094.9,145.711L1094.9,157.711L1106.9,157.711L1106.9,145.711ZM1237.9,129.711L1225.9,129.711L1225.9,141.711L1237.9,141.711L1237.9,129.711ZM1106.9,129.711L1094.9,129.711L1094.9,141.711L1106.9,141.711L1106.9,129.711ZM1237.9,113.711L1225.9,113.711L1225.9,125.711L1237.9,125.711L1237.9,113.711ZM1106.9,113.711L1094.9,113.711L1094.9,125.711L1106.9,125.711L1106.9,113.711Z" style="fill:rgb(105,72,69);"/>
                </g>
                <g transform="matrix(0.790351,0,0,0.899173,222.119,-90.4297)">
                    <rect x="1111.36" y="101.589" width="141.322" height="99.375" style="fill:rgb(64,36,33);"/>
                </g>
            </g>
        </g>
        <g transform="matrix(1,0,0,1,32.0457,1002.57)">
            <g id="Goose" transform="matrix(1.31689,0,0,1.32633,535.045,918.119)">
                <g transform="matrix(0.436846,0,0,0.436846,923.192,-4.35429)">
                    <path d="M1966.36,498.125L1904.22,490.231L1907.66,509.292L1904.22,529.005L1887.88,548.502L1964.78,554.539L1969.86,548.502L1971.96,529.005L1966.36,498.125Z"/>
                </g>
                <g transform="matrix(0.436846,0,0,0.374001,923.192,27.4787)">
                    <path d="M1939.4,393.751L1950.57,393.751L1977.01,405.896L1990.06,434.742L1985.37,474.92L1955.89,506.535L1939.4,502.09L1922.91,506.535L1889.48,474.92L1883.97,455.364L1884.78,434.742L1897.83,405.896L1926.41,392.267L1939.4,393.751Z" style="fill:rgb(25,25,25);"/>
                </g>
                <g transform="matrix(0.436846,0,0,0.436846,917.453,-4.35429)">
                    <path d="M1922.25,495.811L1982.83,495.811L1975.07,505.682L1960.06,531.117L1955.26,536.067L1950.84,536.067L1944.12,531.117L1930.66,506.818L1922.25,495.811Z" style="fill:rgb(39,39,39);"/>
                </g>
                <g transform="matrix(0.436846,0,0,0.436846,917.453,-4.35429)">
                    <path d="M1945.47,531.117L1950.84,534.531L1955.26,534.531L1959.23,530.704L1955.26,535.477L1950.84,535.477L1945.47,531.117Z" style="fill:rgb(86,86,86);"/>
                </g>
                <g transform="matrix(0.436846,0,0,0.436846,917.453,-4.35429)">
                    <path d="M1927.55,495.811L1979.2,495.811L1959.13,529.167L1955.26,534.116L1950.93,534.116L1945.11,529.167L1927.55,495.811Z" style="fill:rgb(147,111,111);"/>
                </g>
                <g transform="matrix(0.436846,0,0,0.436846,917.453,-4.35429)">
                    <path d="M1927.55,495.811L1979.2,495.811L1958.7,525.24L1954.66,527.202L1950.33,527.202L1947.42,525.24L1927.55,495.811Z" style="fill:rgb(117,78,78);"/>
                </g>
                <g transform="matrix(0.436846,0,0,0.436846,923.192,-4.35429)">
                    <path d="M1939.89,515.939L1975.83,488.396L1970.58,495.811L1947.1,517.425L1942.58,522.374L1939.98,522.374L1939.93,522.193L1939.89,522.374L1937.29,522.374L1932.77,517.425L1909.11,495.811L1903.86,488.396L1939.89,515.939Z" style="fill:rgb(36,25,25);"/>
                </g>
                <g transform="matrix(0.436846,0,0,0.327513,923.192,50.8989)">
                    <path d="M1902.84,415.138L1895.68,418.3L1889.96,426.515L1887.79,434.321L1887.79,447.645L1892.07,466.358L1926.61,502.769L1920.49,480.319L1909.14,466.358L1903.59,447.645L1901.07,428.091L1902.84,415.138Z" style="fill:white;"/>
                </g>
                <g transform="matrix(-0.436846,0,0,0.327513,2616.29,50.0354)">
                    <path d="M1903.62,417.552L1896.63,416.383L1890.08,424.047L1887.79,434.321L1893.18,474.721L1920.68,506.723L1906.13,466.966L1902.28,447.855L1900.66,428.047L1903.62,417.552Z" style="fill:white;"/>
                </g>
                <g transform="matrix(0.436846,0,0,0.436846,923.192,-4.35429)">
                    <path d="M1939.85,457.722L1939.89,457.535L1950.73,456.381L1952.56,468.545L1960.24,486.821L1967.63,489.655L1972.87,486.821L1975.83,488.396L1970.58,494.811L1947.01,514.939L1942.49,519.888L1939.89,519.888L1939.85,519.707L1939.8,519.888L1937.2,519.888L1932.68,514.939L1909.82,494.811L1903.86,491.567L1903.86,488.396L1906.82,486.821L1909.11,486.821L1912.06,489.655L1918.54,483.569L1926.72,468.545L1926.72,454.901L1939.8,457.535L1939.85,457.722Z" style="fill:rgb(42,40,40);"/>
                </g>
                <g transform="matrix(0.436846,0,0,0.436846,923.192,-4.35429)">
                    <path d="M1939.85,457.722L1939.89,457.535L1951.1,456.381L1948.5,467.557L1947.01,510.645L1968.9,490.81L1972.97,488.396L1972.97,490.81L1968.9,494.811L1947.01,514.939L1942.49,519.888L1939.89,519.888L1939.85,519.707L1939.8,519.888L1937.2,519.888L1932.68,514.939L1912.06,494.811L1906.82,489.655L1906.82,488.396L1909.42,488.396L1934.44,510.645L1932.68,467.557L1928.59,455.266L1939.8,457.535L1939.85,457.722Z" style="fill:rgb(86,86,86);"/>
                </g>
                <g transform="matrix(0.436846,0,0,0.436846,923.192,-4.35429)">
                    <path d="M1939.93,460.043L1939.98,459.857L1944.32,463.253L1945.9,467.557L1944.23,510.645L1945.9,513.591L1942.31,518.181L1939.89,519.888L1939.85,519.707L1939.8,519.888L1937.29,518.181L1934.3,514.939L1937.29,510.645L1935.74,467.557L1937.29,463.253L1939.89,459.857L1939.93,460.043Z" style="fill:rgb(124,124,124);"/>
                </g>
                <g transform="matrix(0.436846,0,0,0.436846,919.5,-5.77429)">
                    <path d="M1941.77,484.578L1939.06,491.81L1937.57,509.497L1943.38,513.91L1941.77,484.578Z" style="fill:rgb(25,25,25);"/>
                </g>
                <g transform="matrix(-0.436846,0,0,0.436846,2622.79,-5.41224)">
                    <path d="M1941.88,485.525L1939.06,491.81L1937.57,509.497L1943.38,513.91L1941.88,485.525Z" style="fill:rgb(25,25,25);"/>
                </g>
                <g>
                    <g transform="matrix(0.593116,0,0,0.593116,622.252,-63.634)">
                        <path d="M1913.05,425.034L1909.25,429.399L1914.82,437.108L1921.88,434.321L1919.38,429.399L1913.05,425.034Z" style="fill:rgb(42,40,40);"/>
                    </g>
                    <g transform="matrix(0.445016,0,0,0.445016,905.946,0.207591)">
                        <path d="M1913.05,425.034L1909.25,429.399L1914.82,437.108L1921.88,434.321L1919.38,429.399L1913.05,425.034Z" style="fill:rgb(25,25,25);"/>
                    </g>
                    <g transform="matrix(0.205143,0,0,0.205143,1364.63,102.717)">
                        <path d="M1913.05,425.034L1909.25,429.399L1914.82,437.108L1921.88,434.321L1919.38,429.399L1913.05,425.034Z" style="fill:white;"/>
                    </g>
                </g>
                <g transform="matrix(-1,0,0,1,3539.92,0.353233)">
                    <g transform="matrix(0.593116,0,0,0.593116,622.252,-63.634)">
                        <path d="M1913.05,425.034L1909.25,429.399L1914.82,437.108L1921.88,434.321L1919.38,429.399L1913.05,425.034Z" style="fill:rgb(42,40,40);"/>
                    </g>
                    <g transform="matrix(0.445016,0,0,0.445016,905.946,0.207591)">
                        <path d="M1913.05,425.034L1909.25,429.399L1914.82,437.108L1921.88,434.321L1919.38,429.399L1913.05,425.034Z" style="fill:rgb(25,25,25);"/>
                    </g>
                    <g transform="matrix(0.205143,0,0,0.205143,1366.08,103.306)">
                        <path d="M1913.05,425.034L1909.25,429.399L1914.82,437.108L1921.88,434.321L1919.38,429.399L1913.05,425.034Z" style="fill:white;"/>
                    </g>
                </g>
                <g transform="matrix(0.436846,0,0,0.436846,923.192,-4.28524)">
                    <path d="M1950.96,411.536L1939.89,413.669L1927.95,411.536L1901.16,422.918L1891.36,442.599L1903.58,428.081L1927.95,415.266L1941.7,416.468L1950.96,411.536Z" style="fill:rgb(42,40,40);"/>
                </g>
            </g>
        </g>
    </g>
</svg>
