<?xml version="1.0" encoding="UTF-8" standalone="no"?>
<!DOCTYPE svg PUBLIC "-//W3C//DTD SVG 1.1//EN" "http://www.w3.org/Graphics/SVG/1.1/DTD/svg11.dtd">
<svg width="100%" height="100%" viewBox="0 0 151 93" version="1.1" xmlns="http://www.w3.org/2000/svg" xmlns:xlink="http://www.w3.org/1999/xlink" xml:space="preserve" xmlns:serif="http://www.serif.com/" style="fill-rule:evenodd;clip-rule:evenodd;stroke-linejoin:round;stroke-miterlimit:1.41421;">
    <g transform="matrix(1,0,0,1,-3008.5,-2122.55)">
        <g transform="matrix(1,0,0,1,32.0457,1002.57)">
            <g id="Film" transform="matrix(1,0,0,1,1895.98,1119.98)">
                <g transform="matrix(1,0,0,1,-10,-101.127)">
                    <path d="M1241.48,193.711L1090.48,193.711L1090.48,101.127L1094.9,101.127L1094.9,109.711L1106.9,109.711L1106.9,101.127L1225.9,101.127L1225.9,109.711L1237.9,109.711L1237.9,101.127L1241.48,101.127L1241.48,193.711ZM1106.9,193.711L1094.9,193.711L1106.9,193.711ZM1237.9,193.711L1225.9,193.711L1237.9,193.711ZM1106.9,177.711L1094.9,177.711L1094.9,189.711L1106.9,189.711L1106.9,177.711ZM1237.9,177.711L1225.9,177.711L1225.9,189.711L1237.9,189.711L1237.9,177.711ZM1106.9,161.711L1094.9,161.711L1094.9,173.711L1106.9,173.711L1106.9,161.711ZM1237.9,161.711L1225.9,161.711L1225.9,173.711L1237.9,173.711L1237.9,161.711ZM1237.9,145.711L1225.9,145.711L1225.9,157.711L1237.9,157.711L1237.9,145.711ZM1106.9,145.711L1094.9,145.711L1094.9,157.711L1106.9,157.711L1106.9,145.711ZM1237.9,129.711L1225.9,129.711L1225.9,141.711L1237.9,141.711L1237.9,129.711ZM1106.9,129.711L1094.9,129.711L1094.9,141.711L1106.9,141.711L1106.9,129.711ZM1237.9,113.711L1225.9,113.711L1225.9,125.711L1237.9,125.711L1237.9,113.711ZM1106.9,113.711L1094.9,113.711L1094.9,125.711L1106.9,125.711L1106.9,113.711Z" style="fill:rgb(105,72,69);"/>
                </g>
                <g transform="matrix(0.790351,0,0,0.899173,222.119,-90.4297)">
                    <rect x="1111.36" y="101.589" width="141.322" height="99.375" style="fill:rgb(64,36,33);"/>
                </g>
            </g>
        </g>
        <g transform="matrix(1,0,0,1,32.0457,1002.57)">
            <g id="Beaver" transform="matrix(1.27622,0,0,1.27622,869.625,880.062)">
                <g transform="matrix(0.436846,0,0,0.436846,923.192,-4.35429)">
                    <path d="M1813.77,462.523L1828.01,458.805L1845.78,462.523L1852.94,458.805L1860.31,462.523L1865.44,475.652L1860.31,491.922L1873.63,512.327L1878.56,534.338L1873.57,567.348L1866.92,579.975L1850.15,587.818L1831.66,585.046L1820.6,576.385L1809.27,583.122L1801.1,579.975L1801.09,579.965L1801.08,579.975L1792.92,583.122L1781.58,576.385L1770.53,585.046L1752.03,587.818L1735.26,579.975L1728.61,567.348L1723.62,534.338L1728.55,512.327L1741.88,491.922L1736.75,475.652L1741.88,462.523L1749.25,458.805L1756.41,462.523L1774.18,458.805L1788.42,462.523L1801.08,462.523L1801.09,462.534L1801.1,462.523L1813.77,462.523Z" style="fill:rgb(137,62,54);"/>
                </g>
                <g transform="matrix(0.436846,0,0,0.436846,923.192,-4.35429)">
                    <path d="M1801.11,569.901L1820.64,569.099L1837.44,547.484L1835.26,567.395L1850.19,569.099L1864.81,557.956L1878.6,534.386L1873.61,567.395L1866.96,580.022L1850.19,587.865L1831.69,585.093L1820.64,576.432L1809.3,583.169L1801.14,580.022L1801.11,579.989L1801.08,580.022L1792.92,583.169L1781.58,576.432L1770.53,585.093L1752.03,587.865L1735.26,580.022L1728.61,567.395L1723.62,534.386L1737.41,557.956L1752.03,569.099L1766.96,567.395L1770.53,552.487L1782.95,569.901L1801.11,569.901Z" style="fill:rgb(77,37,33);"/>
                </g>
                <g transform="matrix(0.546452,-5.40179e-18,0.000559313,0.498673,736.491,-20.6246)">
                    <path d="M1743.81,438.502L1743.8,449.469L1734.55,462.953L1731.33,449.469L1734.57,439.469L1739.5,436.578L1743.81,438.502Z" style="fill:rgb(55,55,55);"/>
                </g>
                <g transform="matrix(-0.546452,-5.40179e-18,-0.000559313,0.498673,2683.6,-20.6246)">
                    <path d="M1743.81,438.502L1743.8,449.469L1734.55,462.953L1731.33,449.469L1734.57,439.469L1739.5,436.578L1743.81,438.502Z" style="fill:rgb(55,55,55);"/>
                </g>
                <g transform="matrix(0.30056,0,0,0.436846,978.135,109.376)">
                    <path d="M2424.76,276.654L2445.04,276.654L2442.13,287.694L2436.68,289.093L2434.9,288.566L2433.12,289.093L2427.67,287.694L2424.76,276.654Z" style="fill:rgb(255,254,254);"/>
                </g>
                <g transform="matrix(0.242853,0,0,-0.436846,1118.64,364.521)">
                    <path d="M2419.95,276.654L2427.67,272.902L2442.13,272.902L2449.85,276.654L2442.13,287.694L2436.68,289.093L2434.9,288.566L2433.12,289.093L2427.67,287.694L2419.95,276.654Z" style="fill:rgb(255,254,254);"/>
                </g>
                <g transform="matrix(0.436846,0,0,0.436846,923.192,-4.18547)">
                    <path d="M1790.06,489.642L1759.76,507.01L1739.09,538.531L1737.29,557.697L1751.53,569.004L1766.82,567.412L1771.09,550.901L1790.06,489.642Z" style="fill:rgb(94,47,42);"/>
                </g>
                <g transform="matrix(-0.436846,0,0,0.436846,2497.07,-4.18547)">
                    <path d="M1790.06,489.642L1759.76,507.01L1739.09,538.531L1737.29,557.697L1751.53,569.004L1767.67,567.129L1771.09,550.901L1790.06,489.642Z" style="fill:rgb(94,47,42);"/>
                </g>
                <g transform="matrix(0.436846,0,0,0.436846,923.192,-4.35429)">
                    <path d="M1815.15,466.741L1819.99,474.071L1828.22,466.741L1841.63,472.823L1853.58,485.189L1870.7,511.884L1872.93,518.37L1864.69,508L1850.3,498.703L1841.63,493.676L1827.03,491.48L1819.99,491.48L1811.11,488.768L1801.66,505.073L1801.48,505.659L1801.4,505.525L1801.32,505.659L1801.14,505.073L1791.69,488.768L1786.02,485.189L1778.6,487.516L1761.17,493.676L1752.5,498.703L1738.11,508L1729.87,518.37L1732.1,511.884L1749.22,485.189L1756.9,478.029L1764.48,476.221L1774.58,466.741L1782.81,474.071L1787.64,466.741L1815.15,466.741Z" style="fill:rgb(179,120,99);"/>
                </g>
                <g transform="matrix(0.436846,0,0,0.436846,923.192,-5.22799)">
                    <path d="M1800.82,580.965L1796.55,582.657L1788.36,580.766L1780.22,575.629L1776.9,570.093L1772.07,562.607L1772.07,552.306L1776.9,545.866L1775.56,554.226L1784.28,565.17L1789.85,561.812L1794.7,562.607L1796.55,565.075L1801.11,566.338L1805.32,565.17L1807.83,562.702L1812.31,562.702L1817.78,565.17L1826.92,554.226L1824.97,545.96L1829.81,552.4L1829.81,562.702L1824.97,570.188L1821.65,575.723L1813.51,580.861L1805.32,582.752L1800.82,580.965Z" style="fill:rgb(96,60,56);"/>
                </g>
                <g transform="matrix(0.436846,0,0,0.362935,925.128,31.3411)">
                    <path d="M1788.51,490.404L1806.68,490.404L1814.65,495.055L1821.08,513.919L1821.08,536.388C1821.08,536.388 1831.54,550.345 1831.54,550.345L1829.18,568.544L1825.47,573.437L1817.09,549.374L1796.69,557.049L1776.39,550.345L1772.13,555.004L1768.5,571.27L1765.06,568.544L1762.54,550.345L1772.13,536.388C1772.13,536.388 1772.13,513.919 1772.13,513.919L1780.64,495.055L1788.51,490.404Z" style="fill:rgb(102,72,69);"/>
                </g>
                <g transform="matrix(0.436846,0,0,0.436846,923.192,-4.35429)">
                    <path d="M1798.76,564.827L1791.57,561.784L1784.01,564.827L1774.1,552.864L1774.1,542.814L1777.36,534.384L1798.76,542.814L1799.8,535.318L1798.76,512.312L1803.08,512.312L1802.38,535.318L1803.08,542.814L1821.88,534.384L1827.73,542.814L1827.73,552.864L1817.82,564.827L1810.26,561.784L1803.08,564.827L1798.76,564.827ZM1821.01,538.943L1800.92,546.212L1781.67,540.736L1779.89,540.736L1777.36,544.137L1777.36,550.116L1784.01,561.784L1790.01,559.73L1795.07,560.376L1800.92,563.086L1806.76,560.376L1811.83,559.73L1817.82,561.784L1825.51,550.116L1821.01,538.943Z" style="fill:rgb(55,55,55);"/>
                </g>
                <g transform="matrix(0.93356,0,0,0.93356,-559.15,-221.269)">
                    <path d="M2430.61,459.166L2431.21,458.824L2434.28,459.695L2435.66,460.861L2437.15,465.529L2436.71,472.595L2435.08,472.057L2433.6,474.067L2431.05,475.189L2430.61,474.788L2430.17,475.189L2427.61,474.067L2426.14,472.057L2424.54,472.595L2424.06,465.529L2425.55,460.861L2426.93,459.695L2430,458.824L2430.61,459.166Z" style="fill:rgb(55,55,55);"/>
                </g>
                <g transform="matrix(0.384623,0,0,0.384623,1014.81,26.8998)">
                    <path d="M1778.45,451.621L1772.01,454.726L1769.59,463.814L1772.01,467.715L1778.45,470.172L1783.8,468.728L1783.8,457.53L1778.45,451.621Z" style="fill:rgb(55,55,55);"/>
                </g>
                <g transform="matrix(-0.384623,0,0,0.384623,2405.57,27.0235)">
                    <path d="M1778.45,451.621L1772.01,454.726L1769.59,463.814L1772.01,467.715L1778.45,470.172L1783.8,468.728L1783.8,457.53L1778.45,451.621Z" style="fill:rgb(55,55,55);"/>
                </g>
                <g transform="matrix(0.304368,0,0,0.304368,1157.31,63.8459)">
                    <path d="M1778.45,451.621L1772.01,454.726L1769.59,463.814L1772.01,467.715L1778.45,470.431L1784.76,468.867L1784.76,457.759L1778.45,451.621Z"/>
                </g>
                <g transform="matrix(-0.304368,0,0,0.304368,2263.07,63.9696)">
                    <path d="M1778.45,451.621L1772.01,454.726L1769.59,463.814L1772.01,467.715L1778.45,470.431L1784.76,468.867L1784.76,457.759L1778.45,451.621Z"/>
                </g>
                <g transform="matrix(0.113186,0,0,0.113186,1496.31,150.914)">
                    <path d="M1778.45,451.621L1772.01,454.726L1769.59,463.814L1772.01,467.715L1780.06,469.105L1781.54,458.474L1778.45,451.621Z" style="fill:white;"/>
                </g>
                <g transform="matrix(-0.113186,0,0,0.113186,1922.32,151.037)">
                    <path d="M1778.45,451.621L1772.01,454.726L1769.59,463.814L1772.01,467.715L1780.06,469.105L1781.54,458.474L1778.45,451.621Z" style="fill:white;"/>
                </g>
                <g transform="matrix(0.436846,0,0,0.436846,923.192,-4.35429)">
                    <path d="M1846.22,465.951L1828.74,461.042L1814.6,465.951L1790.62,465.951L1772.79,461.042L1758.06,464.252L1774.77,464.252L1793.64,471.104L1801.3,478.892L1810.15,471.104L1826.78,464.252L1846.22,465.951Z" style="fill:rgb(181,138,118);"/>
                </g>
            </g>
        </g>
    </g>
</svg>
