<?xml version="1.0" encoding="UTF-8" standalone="no"?>
<!DOCTYPE svg PUBLIC "-//W3C//DTD SVG 1.1//EN" "http://www.w3.org/Graphics/SVG/1.1/DTD/svg11.dtd">
<svg width="100%" height="100%" viewBox="0 0 940 801" version="1.1" xmlns="http://www.w3.org/2000/svg" xmlns:xlink="http://www.w3.org/1999/xlink" xml:space="preserve" xmlns:serif="http://www.serif.com/" style="fill-rule:evenodd;clip-rule:evenodd;stroke-linejoin:round;stroke-miterlimit:1.41421;">
    <g transform="matrix(1,0,0,1,-32.6581,-1252.24)">
        <g transform="matrix(1,0,0,1,32.6581,1252.24)">
            <g id="Shutter-Button-Pressed" serif:id="Shutter Button Pressed" transform="matrix(3.72563,0,0,3.48265,-454.935,-1948.57)">
                <ellipse cx="155.938" cy="741.249" rx="10.736" ry="11.486" style="fill:white;"/>
            </g>
        </g>
        <g transform="matrix(1,0,0,1,32.6581,1252.24)">
            <g id="Shutter">
                <g id="Shutter-Border" serif:id="Shutter Border" transform="matrix(1,0,0,1,-20.7302,-96.3894)">
                    <path d="M146.763,679.327C174.359,679.327 196.763,701.731 196.763,729.327C196.763,756.923 174.359,779.327 146.763,779.327C119.167,779.327 96.763,756.923 96.763,729.327C96.763,701.731 119.167,679.327 146.763,679.327ZM146.763,684.327C171.599,684.327 191.763,704.491 191.763,729.327C191.763,754.163 171.599,774.327 146.763,774.327C121.927,774.327 101.763,754.163 101.763,729.327C101.763,704.491 121.927,684.327 146.763,684.327Z" style="fill:rgb(208,208,208);"/>
                </g>
                <g id="Shutter-Button" serif:id="Shutter Button" transform="matrix(3.72563,0,0,3.48265,-454.935,-1948.57)">
                    <ellipse cx="155.938" cy="741.249" rx="10.736" ry="11.486" style="fill:rgb(183,21,21);"/>
                </g>
                <g id="Shutter-Button1" serif:id="Shutter Button" transform="matrix(1,0,0,1,0,-101.127)">
                    <path d="M126.033,694.065C148.109,694.065 166.033,711.988 166.033,734.065C166.033,756.141 148.109,774.065 126.033,774.065C103.956,774.065 86.033,756.141 86.033,734.065C86.033,711.988 103.956,694.065 126.033,694.065ZM126.033,704.065C142.59,704.065 156.033,717.507 156.033,734.065C156.033,750.622 142.59,764.065 126.033,764.065C109.475,764.065 96.033,750.622 96.033,734.065C96.033,717.507 109.475,704.065 126.033,704.065Z" style="fill:rgb(135,38,38);"/>
                </g>
            </g>
        </g>
        <g transform="matrix(1,0,0,1,32.6581,1252.24)">
            <g id="Left">
                <g id="Upper-Left" serif:id="Upper Left" transform="matrix(1.0201,0,0,1,60,60)">
                    <path d="M100,5L5,5L5,100L0,100L0,0L100,0L100,5Z" style="fill:rgb(208,208,208);"/>
                </g>
                <g id="Lower-Left" serif:id="Lower Left" transform="matrix(1.0201,0,0,-1,60,700)">
                    <path d="M100,5L5,5L5,100L0,100L0,0L100,0L100,5Z" style="fill:rgb(208,208,208);"/>
                </g>
            </g>
        </g>
        <g transform="matrix(1,0,0,1,32.6581,1252.24)">
            <g id="Cross-Hairs" serif:id="Cross Hairs" transform="matrix(0.666667,0,0,0.666667,171.085,115.308)">
                <g transform="matrix(1,0,0,1,108.9,319.439)">
                    <path d="M409.974,75.667L457.474,75.667L457.474,28.167L462.474,28.167L462.474,75.667L509.974,75.667L509.974,80.667L462.474,80.667L462.474,128.167L457.474,128.167L457.474,80.667L409.974,80.667L409.974,75.667Z" style="fill:rgb(208,208,208);"/>
                </g>
                <g transform="matrix(1,0,0,1,0,-101.127)">
                    <path d="M498.982,502.645C500.942,538.168 529.439,566.665 564.962,568.625L564.962,573.733C526.624,571.763 495.844,540.984 493.874,502.645L498.982,502.645ZM638.766,502.645L643.874,502.645C641.903,540.983 611.124,571.763 572.785,573.733L572.785,568.625C608.308,566.665 636.805,538.168 638.766,502.645ZM564.962,428.841C529.439,430.802 500.942,459.299 498.982,494.822L493.874,494.822C495.844,456.483 526.623,425.704 564.962,423.733L564.962,428.841ZM572.785,428.841L572.785,423.733C611.123,425.704 641.902,456.483 643.874,494.822L638.766,494.822C636.805,459.299 608.308,430.802 572.785,428.841Z" style="fill:rgb(208,208,208);"/>
                </g>
            </g>
        </g>
        <g transform="matrix(1,0,0,1,32.6581,1252.24)">
            <g transform="matrix(1,0,0,1,-32.6581,-1252.24)">
                <path d="M971.878,1252.24L971.878,1292.24L72.658,1292.24L72.658,1972.24L971.878,1972.24L971.878,2053.05L32.658,2052.19L32.658,1252.24L971.878,1252.24Z" style="fill:rgb(208,208,208);"/>
            </g>
        </g>
    </g>
</svg>
