<?xml version="1.0" encoding="UTF-8" standalone="no"?>
<!DOCTYPE svg PUBLIC "-//W3C//DTD SVG 1.1//EN" "http://www.w3.org/Graphics/SVG/1.1/DTD/svg11.dtd">
<svg width="100%" height="100%" viewBox="0 0 151 93" version="1.1" xmlns="http://www.w3.org/2000/svg" xmlns:xlink="http://www.w3.org/1999/xlink" xml:space="preserve" xmlns:serif="http://www.serif.com/" style="fill-rule:evenodd;clip-rule:evenodd;stroke-linejoin:round;stroke-miterlimit:1.41421;">
    <g transform="matrix(1,0,0,1,-3282.09,-1877.46)">
        <g transform="matrix(1,0,0,1,32.0457,1002.57)">
            <g id="Film" transform="matrix(1,0,0,1,2169.56,874.889)">
                <g transform="matrix(1,0,0,1,-10,-101.127)">
                    <path d="M1241.48,193.711L1090.48,193.711L1090.48,101.127L1094.9,101.127L1094.9,109.711L1106.9,109.711L1106.9,101.127L1225.9,101.127L1225.9,109.711L1237.9,109.711L1237.9,101.127L1241.48,101.127L1241.48,193.711ZM1106.9,193.711L1094.9,193.711L1106.9,193.711ZM1237.9,193.711L1225.9,193.711L1237.9,193.711ZM1106.9,177.711L1094.9,177.711L1094.9,189.711L1106.9,189.711L1106.9,177.711ZM1237.9,177.711L1225.9,177.711L1225.9,189.711L1237.9,189.711L1237.9,177.711ZM1106.9,161.711L1094.9,161.711L1094.9,173.711L1106.9,173.711L1106.9,161.711ZM1237.9,161.711L1225.9,161.711L1225.9,173.711L1237.9,173.711L1237.9,161.711ZM1237.9,145.711L1225.9,145.711L1225.9,157.711L1237.9,157.711L1237.9,145.711ZM1106.9,145.711L1094.9,145.711L1094.9,157.711L1106.9,157.711L1106.9,145.711ZM1237.9,129.711L1225.9,129.711L1225.9,141.711L1237.9,141.711L1237.9,129.711ZM1106.9,129.711L1094.9,129.711L1094.9,141.711L1106.9,141.711L1106.9,129.711ZM1237.9,113.711L1225.9,113.711L1225.9,125.711L1237.9,125.711L1237.9,113.711ZM1106.9,113.711L1094.9,113.711L1094.9,125.711L1106.9,125.711L1106.9,113.711Z" style="fill:rgb(105,72,69);"/>
                </g>
                <g transform="matrix(0.790351,0,0,0.899173,222.119,-90.4297)">
                    <rect x="1111.36" y="101.589" width="141.322" height="99.375" style="fill:rgb(64,36,33);"/>
                </g>
            </g>
        </g>
        <g transform="matrix(1,0,0,1,32.0457,1002.57)">
            <g id="Raccoon" transform="matrix(0.58406,0,0,0.685526,2323.33,860.756)">
                <g transform="matrix(0.436846,0,0,0.436846,923.192,-4.35429)">
                    <path d="M1816.98,118.478L1817.54,117.816L1899.37,124.328L1907.44,151.682L1911.96,132.755L1956.33,102.723L1974.22,110.082L1977.09,125.755L1968.63,147.682L1955.13,163.999L1950.47,168.921L1949.47,178.839L1952.86,184.294L1952.86,191.973L1947.47,196.684L1956.33,202.239L1974.22,215.831L1978.91,221.561L1978.91,283.523L1815.86,311.208L1815.29,311.066L1814.73,311.208L1658.37,289.113L1647.37,283.523L1653.68,221.561L1658.37,215.831L1677.25,202.239L1686.11,196.684L1686.11,191.973L1680.52,188.171L1680.52,180.194L1686.11,168.921L1684.92,164.687L1680.27,159.765L1659.37,124.328L1659.37,102.723L1669.27,110.082L1686.11,114.664L1711.73,132.755L1723.14,151.682L1731.22,124.328L1816.41,117.816L1816.98,118.478Z" style="fill:rgb(149,149,149);"/>
                </g>
                <g transform="matrix(0.436846,0,0,0.436846,923.192,-4.35429)">
                    <path d="M1809.67,192.072L1783.98,148.458L1793.73,140.726L1800.41,144.677L1814.14,154.035L1829.55,144.677L1836.82,140.726L1844.38,148.458L1819.84,192.072L1869.49,158.859L1904.12,170.7L1914.74,124.152L1956.66,102.278L1974.09,108.854L1958.97,108.854L1949.4,114.117L1920.36,173.462L1929.48,200.263L1954.05,215.831L1970.91,239.552L1976.14,281.984L1961.32,276.078L1815.37,276.078L1814.14,271.63L1814.14,276.078L1671.19,276.078L1652.83,281.984L1660.37,228.111L1665.6,220.565L1688.6,200.263L1686.02,192.072L1680.22,190.914L1680.22,180.263L1686.02,170.7L1686.02,163.459L1680.22,158.859L1666.58,137.317L1656.37,124.152L1656.37,108.854L1661.6,102.278L1671.19,105.654L1719.68,137.317L1714.09,158.859L1760.02,158.859L1809.67,192.072Z" style="fill:rgb(149,149,149);"/>
                </g>
                <g transform="matrix(0.436846,0,0,0.436846,923.192,-4.35429)">
                    <path d="M1766.69,137.46L1795.98,125.19L1812.9,136.165L1795.98,132.299L1780.29,142.083L1776.14,149.238L1814.47,198.591L1851.91,149.238L1851.91,142.083L1833.27,127.449L1892.16,142.083L1916.97,160.993L1872.01,160.993L1854.51,169.69L1916.97,244.262L1931.96,247.139L1957.97,265.739L1961.7,276.618L1872.01,296.677L1878.73,303.819L1814.47,311.208L1814.3,311.107L1814.12,311.208L1744.37,299.998L1756.59,296.677L1669.9,276.618L1676.54,265.739L1693.69,247.139L1711.62,244.262L1774.08,169.69L1764.44,154.036L1711.62,160.993L1736.43,142.083L1766.69,137.46Z" style="fill:rgb(149,149,149);"/>
                </g>
                <g transform="matrix(0.436846,0,0,0.436846,923.192,-4.35429)">
                    <path d="M1693.69,180.508L1684.04,173.262L1682.55,178.923L1688.95,184.285L1690.27,191.043L1690.27,200.896L1693.69,194.914L1697.36,191.043L1693.69,180.508Z" style="fill:rgb(149,149,149);"/>
                </g>
                <g transform="matrix(0.436846,0,0,0.436846,923.192,-4.35429)">
                    <path d="M1815.15,205.139L1815.31,204.725L1871.47,174.815L1886.97,193.466L1902.89,254.815L1895.22,272.477L1880.28,277.243L1854.74,305.642L1854.74,317.561L1842.16,326.69L1824.12,328.741L1823.63,328.686L1823.6,328.741L1815.31,327.811L1815.15,327.283L1814.98,327.811L1806.7,328.741L1806.67,328.686L1806.18,328.741L1788.13,326.69L1775.55,317.561L1775.55,305.642L1750.01,277.243L1735.07,272.477L1727.4,254.815L1743.33,193.466L1758.82,174.815L1814.98,204.725L1815.15,205.139Z" style="fill:rgb(149,149,149);"/>
                </g>
                <g transform="matrix(0.436846,0,0,0.436846,923.192,-4.35429)">
                    <path d="M1815.15,205.139L1815.31,204.725L1871.47,174.815L1871.47,238.745L1861.26,277.243L1879.53,277.243L1854.74,305.642L1854.74,317.561L1842.16,326.69L1824.12,328.741L1823.63,328.686L1823.6,328.741L1815.31,327.811L1815.15,327.283L1814.98,327.811L1806.7,328.741L1806.67,328.686L1806.18,328.741L1788.13,326.69L1775.55,317.561L1775.55,305.642L1750.01,277.243L1764.48,277.243L1755.38,256.552L1758.82,238.745L1758.82,174.815L1814.98,204.725L1815.15,205.139Z" style="fill:rgb(149,149,149);"/>
                </g>
                <g transform="matrix(0.436846,0,0,0.436846,923.192,-4.35429)">
                    <path d="M1764.48,277.243L1814.98,309.218L1861.26,277.243L1879.53,277.243L1854.74,305.642L1854.74,317.561L1842.16,326.69L1824.12,328.741L1823.63,328.686L1823.6,328.741L1815.31,327.811L1815.15,327.283L1814.98,327.811L1806.7,328.741L1806.67,328.686L1806.18,328.741L1788.13,326.69L1775.55,317.561L1775.55,305.642L1750.01,277.243L1764.48,277.243Z" style="fill:rgb(149,149,149);"/>
                </g>
                <g transform="matrix(0.436846,0,0,0.436846,923.192,-4.35429)">
                    <path d="M1804.22,249.181L1789.63,240.096L1760.39,237.717L1786.97,202.341L1843.18,202.341L1869.76,237.717L1840.52,240.096L1825.93,249.181L1804.22,249.181Z" style="fill:rgb(149,149,149);"/>
                </g>
                <g transform="matrix(0.436846,0,0,0.436846,923.192,-4.35429)">
                    <path d="M1850.21,283.872L1861.91,277.914L1874.46,277.914L1864.66,282.186L1845.54,298.002L1840.03,305.669L1839.9,310.301L1833.23,313.978L1826.39,312.978L1814.61,313.923L1814.54,313.978L1814.52,313.955L1814.5,313.978L1814.22,313.955L1813.93,313.978L1813.91,313.955L1813.89,313.978L1813.82,313.923L1802.04,312.978L1795.2,313.978L1788.53,310.301L1788.4,305.669L1782.89,298.002L1763.77,282.186L1753.97,277.914L1766.52,277.914L1778.22,283.872L1793.1,288.001L1835.33,288.001L1850.21,283.872Z" style="fill:rgb(149,149,149);"/>
                </g>
                <g transform="matrix(0.925764,0,0,0.877363,127.386,11.2328)">
                    <g transform="matrix(0.436846,0,0,0.436846,877.935,-42.1135)">
                        <path d="M1918.23,386.735L1937.95,387.885L1940.14,393.944L1934.85,397.46L1936.97,404.436L1937.51,408.199L1918.23,410.702L1918.23,410.722L1918.1,408.712L1917.97,410.722L1917.97,410.702L1898.69,408.199L1899.24,404.436L1901.35,397.46L1896.06,393.944L1898.25,387.885L1917.97,386.735L1918.1,388.734L1918.23,386.733L1918.23,386.735Z" style="fill:rgb(149,149,149);"/>
                    </g>
                    <g>
                        <g transform="matrix(0.436846,0,0,-0.436846,1525,296.701)">
                            <path d="M424.129,390.058L414.786,390.058L416.372,384.837L421.543,382.837L424.129,390.058Z" style="fill:rgb(149,149,149);"/>
                        </g>
                        <g transform="matrix(-0.336491,0,0,0.336491,1849.97,5.19358)">
                            <path d="M424.129,390.058L414.786,390.058L416.372,384.837L421.543,382.837L424.129,390.058Z" style="fill:rgb(149,149,149);"/>
                        </g>
                    </g>
                    <g transform="matrix(-1,0,0,1,3431.89,1.77636e-15)">
                        <g transform="matrix(0.436846,0,0,-0.436846,1525,296.701)">
                            <path d="M424.129,390.058L414.786,390.058L416.372,384.837L421.543,382.837L424.129,390.058Z" style="fill:rgb(149,149,149);"/>
                        </g>
                        <g transform="matrix(-0.336491,0,0,0.336491,1849.97,5.19358)">
                            <path d="M424.129,390.058L414.786,390.058L416.372,384.837L421.543,382.837L424.129,390.058Z" style="fill:rgb(149,149,149);"/>
                        </g>
                    </g>
                </g>
                <g transform="matrix(0.925764,0,0,1,127.589,0)">
                    <g transform="matrix(0.436846,0,0,0.436846,1523.31,-36.2957)">
                        <path d="M272.977,183.929L306.56,216.755L322.432,223.517L322.432,247.59L306.56,247.59L306.56,236.095L292.206,216.755L272.977,195.399L272.977,183.929Z" style="fill:rgb(149,149,149);"/>
                    </g>
                    <g transform="matrix(-0.436846,0,0,0.436846,1908.15,-36.6125)">
                        <path d="M283.279,180.529L300.005,189.314L324.352,210.4L319.991,216.334L319.991,223.939L316.384,235.481L319.991,240.743L316.384,252.019L300.005,261.413L300.005,252.019L293.543,235.481L279.195,220.43L271.112,197.976L275.26,185.995L283.279,180.529Z" style="fill:rgb(149,149,149);"/>
                    </g>
                </g>
                <g transform="matrix(0.925764,0,0,1,105.096,-133.942)">
                    <g transform="matrix(0.471876,0,0,0.436846,883.699,129.588)">
                        <path d="M1814.72,109.417L1838.21,109.346L1898.42,123.404L1923.96,119.617L1914.24,130.592L1910.59,139.112L1903.41,138.035L1914.24,145.189L1920.2,163.407L1870.22,142.461L1870.02,139.656L1868,141.531L1870.22,142.461L1870.42,145.189L1857.3,170.837L1874.83,177.49L1903.01,195.054L1923.96,217.037L1929.65,221.233L1923.96,223.129L1933.44,238.861L1942.07,247.276L1898.45,264.564L1873.74,257.961L1869.29,238.861L1854.91,221.233L1823.26,202.849L1818.6,205.873L1818.58,206.013L1818.48,207.699L1825.97,249.131L1821.29,251.429L1820.48,255.211L1830.92,267.205L1831.55,277.181L1822.97,284.507L1814.72,284.507L1814.62,284.504L1814.53,284.507L1806.27,284.507L1797.7,277.181L1798.32,267.205L1808.76,255.211L1807.96,251.429L1803.27,249.131L1810.76,207.699L1810.67,206.013L1810.64,205.873L1805.98,202.849L1774.33,221.233L1759.96,238.861L1755.51,257.961L1730.8,264.564L1687.18,247.276L1695.8,238.861L1705.28,223.129L1699.6,221.233L1705.28,217.037L1726.24,195.054L1754.41,177.49L1771.94,170.837L1758.83,145.189L1759.03,142.461L1761.24,141.531L1759.23,139.656L1759.03,142.461L1709.04,163.407L1716.85,151.997L1709.04,130.654L1685.44,115.551L1730.83,123.404L1791.23,109.346L1814.72,109.417ZM1761.24,141.531L1778.48,157.577L1808.15,189.974L1810.33,200.08L1806.33,130.654L1806.22,130.654L1806.24,130.592L1795.96,126.983L1761.24,141.531ZM1823.01,130.592L1823.03,130.654L1822.91,130.654L1818.92,200.08L1821.1,189.974L1850.76,157.577L1868,141.531L1833.28,126.983L1823.01,130.592Z" style="fill:rgb(149,149,149);"/>
                    </g>
                    <g transform="matrix(0.471876,0,0,0.436846,883.699,129.588)">
                        <path d="M1813.97,112.81L1837.47,112.739L1898.42,123.404L1910.59,139.112L1903.41,138.035L1914.24,145.189L1920.2,163.407L1870.22,142.461L1870.02,139.656L1868,141.531L1870.22,142.461L1870.42,145.189L1857.3,170.837L1874.83,177.49L1903.01,195.054L1923.96,217.037L1929.65,221.233L1923.96,223.129L1933.44,238.861L1942.07,247.276L1898.45,264.564L1873.74,257.961L1869.29,238.861L1854.91,221.233L1823.26,202.849L1818.6,205.873L1818.58,206.013L1818.48,207.699L1825.97,249.131L1821.29,251.429L1820.48,255.211L1830.92,267.205L1831.55,277.181L1822.97,284.507L1814.72,284.507L1814.62,284.504L1814.53,284.507L1806.27,284.507L1797.7,277.181L1798.32,267.205L1808.76,255.211L1807.96,251.429L1803.27,249.131L1810.76,207.699L1810.67,206.013L1810.64,205.873L1805.98,202.849L1774.33,221.233L1759.96,238.861L1755.51,257.961L1730.8,264.564L1687.18,247.276L1695.8,238.861L1705.28,223.129L1699.6,221.233L1705.28,217.037L1726.24,195.054L1754.41,177.49L1771.94,170.837L1763.85,155.013L1766.13,148.893L1709.04,163.407L1713.82,157.577L1715.01,145.189L1725.84,138.035L1718.65,139.112L1730.83,123.404L1790.48,112.739L1813.97,112.81ZM1795.96,126.983L1766.13,145.189L1808.15,189.974L1810.33,200.08L1806.33,130.654L1806.22,130.654L1806.24,130.592L1795.96,126.983ZM1823.01,130.592L1823.03,130.654L1822.91,130.654L1818.92,200.08L1821.1,189.974L1850.76,157.577L1868,141.531L1833.28,126.983L1823.01,130.592Z" style="fill:rgb(149,149,149);"/>
                    </g>
                    <g transform="matrix(0.471876,0,0,0.436846,883.699,129.588)">
                        <path d="M1816.61,103.417L1839.94,101.143L1898.98,123.404L1911.16,139.112L1903.98,138.035L1914.81,145.189L1920.77,163.407L1872.84,145.189L1856.9,133.791L1838.12,125.221L1822.6,133.791L1814.91,125.221L1807.21,133.791L1791.7,125.221L1766.59,133.791L1755,145.189L1709.04,163.407L1713.56,156.849L1713.56,147.783L1710.75,136.789L1685.81,115.707L1713.56,120.651L1730.83,123.404L1791.7,101.143L1816.61,103.417Z" style="fill:rgb(149,149,149);"/>
                    </g>
                    <g transform="matrix(0.471876,0,0,0.436846,883.699,129.588)">
                        <path d="M1771.94,170.837L1814.53,195.054L1857.3,170.837L1874.83,177.49L1923.96,217.037L1929.65,221.233L1923.96,223.129L1942.07,235.065L1942.07,247.276L1898.45,264.564L1873.74,257.961L1869.29,238.861L1854.91,221.233L1823.26,202.849L1818.6,205.873L1818.58,206.013L1818.48,207.699L1825.97,249.131L1821.29,251.429L1820.48,255.211L1830.92,267.205L1831.55,277.181L1822.97,284.507L1814.72,284.507L1814.62,284.504L1814.53,284.507L1806.27,284.507L1797.7,277.181L1798.32,267.205L1808.76,255.211L1807.96,251.429L1803.27,249.131L1810.76,207.699L1810.67,206.013L1810.64,205.873L1805.98,202.849L1774.33,221.233L1759.96,238.861L1755.51,257.961L1730.8,264.564L1687.18,247.276L1695.8,238.861L1705.28,223.129L1699.6,221.233L1705.28,217.037L1726.24,195.054L1754.41,177.49L1771.94,170.837ZM1810.33,200.08L1808.15,189.974L1810.33,200.08ZM1821.1,189.974L1818.92,200.08L1821.1,189.974Z" style="fill:rgb(149,149,149);"/>
                    </g>
                    <g transform="matrix(0.436846,0,0,0.436846,880.448,-4.35429)">
                        <path d="M1985.19,573.818L1982.34,570.972L1978.43,568.703L1972.62,566.085L1963.26,566.085L1958.38,568.703L1954.19,570.604L1950.18,573.818L1953.64,570.219L1956.64,568.703L1960.08,566.516L1961.46,561.823L1960.08,558.356L1955.74,555.744L1956.37,551.455L1961.46,516.396L1950.18,502.207L1964.5,513.823L1958.38,553.849L1964.5,564.888L1970.99,564.888L1976.6,553.849L1970.99,513.823C1970.99,513.823 1985.19,501.832 1985.19,502.207C1985.19,502.07 1973.91,516.396 1973.91,516.396L1979.79,555.744L1975.26,558.356L1973.91,561.823L1976.6,566.516L1979.79,568.703L1982.34,570.219L1985.19,573.818Z" style="fill:rgb(149,149,149);"/>
                    </g>
                    <g transform="matrix(0.471876,0,0,0.436846,883.699,129.588)">
                        <path d="M1818.6,260.211L1830.04,267.205L1831.7,277.193L1828.36,282.34L1823.57,285.21L1814.84,285.507L1814.81,285.37L1814.72,285.507L1805.98,285.21L1801.19,282.34L1797.85,277.193L1799.51,267.205L1810.95,260.211L1811.06,260.357L1811.04,260.211L1818.6,260.211Z" style="fill:rgb(149,149,149);"/>
                    </g>
                    <g transform="matrix(0.471876,0,0,0.436846,883.699,129.588)">
                        <path d="M1813.28,254.396L1810.59,227.364L1810.95,207.699L1798.44,195.054L1778.48,198.729L1761.7,214.686L1745.33,214.686L1736.49,198.729L1754.41,177.49L1775.81,170.837L1765.97,162.32L1762.5,148.401L1761.7,145.189L1764.36,145.66L1761.7,139.656L1778.48,157.577L1808.15,189.974L1808.66,192.36L1808.29,189.974L1810.54,200.431L1808.08,157.647L1807.44,146.656L1806.87,136.615L1796.71,127.168L1771.82,128.399L1788.28,122.728L1792.07,122.728L1806.38,130.576L1806.41,130.654L1806.52,130.654L1806.38,130.576L1798.44,109.668L1756.21,128.399L1722.76,149.288L1739.73,130.654L1720.6,145.189L1711.92,154.126L1713.8,145.722L1733.15,130.654L1771.82,112.582L1765.97,109.668L1771.82,106.595L1793.22,103.623L1814.79,106.422L1814.85,106.619L1814.92,106.422L1836.49,103.623L1857.88,106.595L1863.74,109.668L1857.88,112.582L1896.55,130.654L1915.91,145.722L1917.79,154.126L1909.11,145.189L1889.98,130.654L1906.94,149.288L1873.5,128.399L1831.27,109.668L1823.33,130.576L1823.18,130.654L1823.3,130.654L1823.33,130.576L1837.63,122.728L1841.42,122.728L1857.88,128.399L1832.99,127.168L1822.84,136.615L1822.18,148.121L1821.63,157.635L1819.17,200.431L1821.42,189.974L1821.04,192.36L1821.56,189.974L1851.22,157.577L1870.48,139.656L1868.01,145.189L1860.63,157.577L1853.89,170.837L1875.29,177.49L1893.22,198.729L1884.38,214.686L1868.01,214.686L1851.22,198.729L1831.27,195.054L1818.75,207.699L1819.12,227.364L1816.43,254.396L1813.28,254.396Z" style="fill:rgb(149,149,149);"/>
                    </g>
                    <g transform="matrix(0.471876,0,0,0.436846,883.699,129.588)">
                        <path d="M1813.28,254.396L1810.59,227.364L1810.54,210.465L1803.27,204.419L1798.44,195.054L1778.48,198.729L1761.7,214.686L1745.33,214.686L1736.49,198.729L1754.41,177.49L1775.81,170.837L1769.08,161.676L1778.48,161.676L1808.15,189.974L1808.66,192.36L1808.29,189.974L1810.54,200.431L1819.17,200.431L1821.42,189.974L1821.04,192.36L1821.56,189.974L1851.22,157.577L1870.48,139.656L1868.01,145.189L1863.74,161.676L1853.89,170.837L1875.29,177.49L1893.22,198.729L1884.38,214.686L1868.01,214.686L1851.22,198.729L1831.27,195.054L1827.77,204.419L1821.42,210.465L1818.75,207.699L1819.12,227.364L1816.43,254.396L1813.28,254.396Z" style="fill:rgb(149,149,149);"/>
                    </g>
                    <g transform="matrix(0.471876,0,0,0.436846,883.699,129.588)">
                        <path d="M1816.43,254.396L1813.11,254.396L1810.42,227.364L1810.79,207.699L1807.91,157.635L1807.65,157.165L1807.09,156.527L1803.1,148.731L1796.55,136.615L1802.02,142.441L1807.27,146.52L1806.7,136.615L1806.68,136.446L1796.71,127.168L1771.82,128.399L1788.28,122.728L1792.07,122.728L1806.28,130.52L1806.44,130.389L1802.51,118.221L1756.21,128.399L1722.76,149.288L1739.73,130.654L1720.6,145.189L1713.8,157.165L1708.26,145.189L1713.8,146.52L1713.8,136.615L1689.01,118.221L1722.76,130.654L1796.71,108.555L1814.77,123.495L1832.82,108.555L1897.02,122.728L1915.74,130.654L1921.76,145.189L1921.76,154.983L1926.97,162.179L1921.76,171.756L1919.35,162.179L1915.74,154.126L1908.94,145.189L1889.81,130.654L1906.78,149.288L1873.33,128.399L1827.02,118.221L1823.1,130.389L1823.26,130.52L1837.47,122.728L1841.26,122.728L1857.72,128.399L1832.82,127.168L1822.85,136.446L1822.84,136.615L1822.27,146.52L1827.52,142.441L1832.99,136.615L1826.44,148.731L1822.44,156.527L1821.88,157.165L1821.63,157.635L1820.82,171.756L1819.17,200.431L1818.75,207.699L1819.12,227.364L1816.43,254.396Z" style="fill:rgb(149,149,149);"/>
                    </g>
                    <g transform="matrix(0.471876,0,0,0.436846,883.699,129.588)">
                        <path d="M1818.75,207.699L1817.29,214.686L1812.59,214.686L1810.95,207.699L1808.66,211.183L1810.95,198.729L1798.44,195.054L1778.48,198.729L1761.7,214.686L1745.33,214.686L1736.49,198.729L1754.41,177.49L1775.81,170.837L1771.08,162.577L1767.7,151.212L1780.48,158.887L1812.59,195.054L1817.29,195.054L1839.74,170.837L1851.22,157.577L1866.05,145.981L1861.07,162.577L1851.22,168.601L1875.29,177.49L1893.22,198.729L1884.38,214.686L1868.01,214.686L1851.22,198.729L1831.27,195.054L1827.59,200.854L1818.75,198.729L1818.75,207.699Z" style="fill:rgb(149,149,149);"/>
                    </g>
                </g>
                <g transform="matrix(0.404416,0,0,0.436846,918.872,-132.399)">
                    <path d="M1956.87,571.68L1953.5,568.457L1953.02,567.336L1953.5,565.337L1954.34,566.358L1956.87,570.336L1960.73,568.337L1961.73,569.776L1961.73,570.473L1960.73,571.68L1956.87,571.68Z" style="fill:rgb(149,149,149);"/>
                </g>
                <g transform="matrix(0.404416,0,0,0.436846,918.872,-132.618)">
                    <path d="M1956.87,571.68L1953.5,568.457L1954.34,567.337L1953.5,565.666L1954.34,566.358L1956.87,568.383L1958.71,568.383L1960.73,567.337L1961.73,568.776L1961.73,570.949L1960.73,571.68L1956.87,571.68Z" style="fill:rgb(149,149,149);"/>
                </g>
                <g transform="matrix(-0.404416,0,0,0.436846,2513.01,-132.399)">
                    <path d="M1956.87,569.68L1953.5,568.457L1953.02,567.336L1953.5,565.337L1954.34,566.358L1956.87,567.336L1960.73,565.337L1961.73,566.776L1961.73,568.473L1960.73,569.68L1956.87,569.68Z" style="fill:rgb(149,149,149);"/>
                </g>
                <g transform="matrix(-0.404416,0,0,0.436846,2513.01,-132.618)">
                    <path d="M1956.87,569.68L1953.5,568.457L1953.02,567.336L1953.5,565.337L1954.34,566.358L1956.87,567.336L1960.73,565.337L1961.73,566.776L1961.73,568.473L1960.73,569.68L1956.87,569.68Z" style="fill:rgb(149,149,149);"/>
                </g>
                <g transform="matrix(0.925764,0,0,1,126.742,0)">
                    <g transform="matrix(1,0,0,0.786707,0,24.2423)">
                        <g transform="matrix(0.00690171,-0.0259965,0.42222,0.112093,1566.16,75.7304)">
                            <path d="M394.373,319.402L288.262,319.402L471.261,259.538L438.561,222.467L337.523,170.855L367.845,174.766L494.867,220.027L546.596,255.618L394.373,319.402Z" style="fill:rgb(149,149,149);"/>
                        </g>
                        <g transform="matrix(0.00134813,-0.0268633,0.436297,0.0218956,1561.29,111.095)">
                            <path d="M394.373,319.402L288.262,319.402L471.261,259.538L438.561,222.467L337.523,170.855L367.845,174.766L494.867,220.027L546.596,255.618L394.373,319.402Z" style="fill:rgb(149,149,149);"/>
                        </g>
                        <g transform="matrix(-0.00284692,-0.026746,0.434392,-0.0462379,1562.82,139.459)">
                            <path d="M394.373,319.402L288.262,319.402L471.261,259.538L438.561,222.467L337.523,170.855L367.845,174.766L494.867,220.027L546.596,255.618L394.373,319.402Z" style="fill:rgb(149,149,149);"/>
                        </g>
                    </g>
                    <g transform="matrix(1,0,0,1,0,0.597363)">
                        <g transform="matrix(-0.00690171,-0.0204516,-0.42222,0.0881846,1867.12,83.2226)">
                            <path d="M394.373,319.402L288.262,319.402L471.261,259.538L438.561,222.467L337.523,170.855L367.845,174.766L494.867,220.027L546.596,255.618L394.373,319.402Z" style="fill:rgb(149,149,149);"/>
                        </g>
                        <g transform="matrix(-0.00134813,-0.0211335,-0.436297,0.0172254,1871.99,111.044)">
                            <path d="M394.373,319.402L288.262,319.402L471.261,259.538L438.561,222.467L337.523,170.855L367.845,174.766L494.867,220.027L546.596,255.618L394.373,319.402Z" style="fill:rgb(149,149,149);"/>
                        </g>
                        <g transform="matrix(0.00284692,-0.0210412,-0.434392,-0.0363757,1870.46,133.358)">
                            <path d="M394.373,319.402L288.262,319.402L471.261,259.538L438.561,222.467L337.523,170.855L367.845,174.766L494.867,220.027L546.596,255.618L394.373,319.402Z" style="fill:rgb(149,149,149);"/>
                        </g>
                    </g>
                </g>
                <g transform="matrix(0.744663,0,0,0.940746,437.593,4.97675)">
                    <g>
                        <g transform="matrix(3.33044e-17,-0.543902,0.543902,3.33044e-17,1575.12,1322.99)">
                            <path d="M2292.31,191.605L2302.21,198.376L2304.83,214.837L2302.21,221.711L2292.31,226.196L2279.62,211.916L2276,205.765L2281.66,208.423L2284.74,198.376L2292.31,191.605Z" style="fill:rgb(149,149,149);"/>
                        </g>
                        <g transform="matrix(-3.33044e-17,-0.543902,-0.543902,3.33044e-17,1858.09,1322.99)">
                            <path d="M2292.31,191.605L2302.21,198.376L2304.83,214.837L2302.21,221.711L2292.31,226.196L2279.62,211.916L2276,205.765L2281.66,208.423L2284.74,198.376L2292.31,191.605Z" style="fill:rgb(149,149,149);"/>
                        </g>
                        <g transform="matrix(2.67491e-17,-0.436846,0.436846,2.67491e-17,1597.08,1077.73)">
                            <path d="M2292.24,192.068L2302.21,198.376L2305.28,215.09L2302.21,223.413L2292.24,226.219L2281.26,211.454L2284.38,198.376L2292.24,192.068Z" style="fill:rgb(149,149,149);"/>
                        </g>
                        <g transform="matrix(-2.67491e-17,-0.436846,-0.436846,2.67491e-17,1836.13,1077.73)">
                            <path d="M2292.24,192.068L2302.21,198.376L2305.28,215.09L2302.21,223.413L2292.24,226.219L2281.26,211.454L2284.38,198.376L2292.24,192.068Z" style="fill:rgb(149,149,149);"/>
                        </g>
                        <g transform="matrix(9.76589e-18,-0.159489,0.159489,9.76589e-18,1651.82,440.529)">
                            <path d="M2290.92,191.605L2302.21,198.376L2302.21,211.916L2290.92,218.687L2279.62,211.916L2279.62,198.376L2290.92,191.605Z" style="fill:rgb(149,149,149);"/>
                        </g>
                    </g>
                </g>
                <g transform="matrix(-7.2723e-18,-0.150039,-0.118766,9.18722e-18,1759.34,419.402)">
                    <g>
                        <path d="M2290.92,191.605L2302.21,198.376L2302.21,211.916L2290.92,218.687L2279.62,211.916L2279.62,198.376L2290.92,191.605Z" style="fill:rgb(149,149,149);"/>
                    </g>
                </g>
                <g transform="matrix(0.54578,0,0,0.501003,725.309,-8.43179)">
                    <path d="M1815.8,119.284L1815.69,119.553L1807.71,110.801L1790.32,114.665L1798.44,110.801L1798.44,108.584L1792.02,106.083C1792.02,106.083 1772.47,108.129 1772.47,108.584C1772.47,108.129 1792.02,100.739 1792.02,100.739L1816.01,102.9L1839.67,100.967C1839.67,100.967 1859.22,108.356 1859.22,108.811C1859.22,108.356 1839.67,106.31 1839.67,106.31L1833.25,108.811L1833.25,111.028L1841.38,114.892L1823.98,111.028L1816.01,119.78L1815.8,119.284Z" style="fill:rgb(149,149,149);"/>
                </g>
                <g transform="matrix(0.410031,0,0,0.281239,971.807,15.7993)">
                    <path d="M1815.8,119.284L1815.69,119.553L1807.71,110.801L1797.52,111.028L1800.3,108.811L1792.02,100.739L1816.01,108.811L1839.67,100.967L1833.25,108.811L1835.8,111.028L1823.98,111.028L1816.01,119.78L1815.8,119.284Z" style="fill:rgb(149,149,149);"/>
                </g>
            </g>
        </g>
    </g>
</svg>
