<?xml version="1.0" encoding="UTF-8" standalone="no"?>
<!DOCTYPE svg PUBLIC "-//W3C//DTD SVG 1.1//EN" "http://www.w3.org/Graphics/SVG/1.1/DTD/svg11.dtd">
<svg width="100%" height="100%" viewBox="0 0 151 93" version="1.1" xmlns="http://www.w3.org/2000/svg" xmlns:xlink="http://www.w3.org/1999/xlink" xml:space="preserve" xmlns:serif="http://www.serif.com/" style="fill-rule:evenodd;clip-rule:evenodd;stroke-linejoin:round;stroke-miterlimit:1.41421;">
    <g transform="matrix(1,0,0,1,-2995.13,-1711.97)">
        <g transform="matrix(1,0,0,1,32.0457,1002.57)">
            <g id="Film" transform="matrix(1,0,0,1,1882.6,709.401)">
                <g transform="matrix(1,0,0,1,-10,-101.127)">
                    <path d="M1241.48,193.711L1090.48,193.711L1090.48,101.127L1094.9,101.127L1094.9,109.711L1106.9,109.711L1106.9,101.127L1225.9,101.127L1225.9,109.711L1237.9,109.711L1237.9,101.127L1241.48,101.127L1241.48,193.711ZM1106.9,193.711L1094.9,193.711L1106.9,193.711ZM1237.9,193.711L1225.9,193.711L1237.9,193.711ZM1106.9,177.711L1094.9,177.711L1094.9,189.711L1106.9,189.711L1106.9,177.711ZM1237.9,177.711L1225.9,177.711L1225.9,189.711L1237.9,189.711L1237.9,177.711ZM1106.9,161.711L1094.9,161.711L1094.9,173.711L1106.9,173.711L1106.9,161.711ZM1237.9,161.711L1225.9,161.711L1225.9,173.711L1237.9,173.711L1237.9,161.711ZM1237.9,145.711L1225.9,145.711L1225.9,157.711L1237.9,157.711L1237.9,145.711ZM1106.9,145.711L1094.9,145.711L1094.9,157.711L1106.9,157.711L1106.9,145.711ZM1237.9,129.711L1225.9,129.711L1225.9,141.711L1237.9,141.711L1237.9,129.711ZM1106.9,129.711L1094.9,129.711L1094.9,141.711L1106.9,141.711L1106.9,129.711ZM1237.9,113.711L1225.9,113.711L1225.9,125.711L1237.9,125.711L1237.9,113.711ZM1106.9,113.711L1094.9,113.711L1094.9,125.711L1106.9,125.711L1106.9,113.711Z" style="fill:rgb(105,72,69);"/>
                </g>
                <g transform="matrix(0.790351,0,0,0.899173,222.119,-90.4297)">
                    <rect x="1111.36" y="101.589" width="141.322" height="99.375" style="fill:rgb(64,36,33);"/>
                </g>
            </g>
        </g>
        <g transform="matrix(1,0,0,1,32.0457,1002.57)">
            <g id="Polar-Bear" serif:id="Polar Bear" transform="matrix(0.616368,0,0,0.67847,1993.91,530.22)">
                <g transform="matrix(0.436846,0,0,0.436846,923.192,-4.35429)">
                    <path d="M1905.2,658.04L1913.23,678.32L1905.2,707.04L1881.64,729.072L1889.74,786.146L1859.85,854.288L1808.35,883.37L1785.86,883.37L1766.49,877.004L1747.13,883.37L1724.63,883.37L1673.13,854.288L1643.24,786.146L1651.34,729.072L1627.78,707.04L1619.76,678.32L1627.78,658.04L1652.52,658.04L1687.53,678.32L1710.61,665.927L1754.04,658.04L1766.49,664.721L1778.95,658.04L1822.37,665.927L1845.45,678.32L1880.46,658.04L1905.2,658.04Z" style="fill:rgb(251,248,240);"/>
                </g>
                <g transform="matrix(0.374,0,0,0.374,1027.12,39.2327)">
                    <path d="M1687.53,678.32L1669.48,692.866L1651.34,729.072L1627.78,707.04L1619.76,678.32L1627.78,658.04L1652.52,658.04L1687.53,678.32Z" style="fill:rgb(236,229,212);"/>
                </g>
                <g transform="matrix(-0.374,0,0,0.374,2362.71,39.1116)">
                    <path d="M1687.53,678.32L1669.48,692.866L1651.34,729.072L1627.78,707.04L1619.76,678.32L1627.78,658.04L1652.52,658.04L1687.53,678.32Z" style="fill:rgb(236,229,212);"/>
                </g>
                <g transform="matrix(0.374,0,0,0.374,1027.12,39.2327)">
                    <path d="M1687.53,678.32L1669.48,692.866L1651.34,729.072L1655.94,692.866L1652.52,669.58L1627.78,658.04L1652.52,658.04L1687.53,678.32Z" style="fill:rgb(213,206,190);"/>
                </g>
                <g transform="matrix(-0.374,0,0,0.374,2362.71,39.1116)">
                    <path d="M1687.53,678.32L1669.48,692.866L1651.34,729.072L1655.94,692.866L1652.52,669.58L1627.78,658.04L1652.52,658.04L1687.53,678.32Z" style="fill:rgb(213,206,190);"/>
                </g>
                <g transform="matrix(0.436846,0,0,0.436846,923.192,-4.35429)">
                    <path d="M1753.92,664.902L1713.74,673.493L1682.42,689.844L1657.37,729.04L1682.42,736.861L1757.25,736.861L1745.19,715.787L1735.01,711.237L1753.92,664.902Z" style="fill:white;"/>
                </g>
                <g transform="matrix(-0.436846,0,0,0.436846,2467.71,-4.35429)">
                    <path d="M1753.92,664.902L1713.74,673.493L1682.42,689.844L1657.37,729.04L1682.42,736.861L1757.25,736.861L1745.19,715.787L1735.01,711.237L1753.92,664.902Z" style="fill:white;"/>
                </g>
                <g transform="matrix(0.436846,0,0,0.436846,923.192,-4.35429)">
                    <path d="M1643.24,786.146L1646.65,759.812L1653.93,798.649L1689.85,840.644L1733.5,869.278L1802.39,869.278L1837.8,846.2L1871.65,807.064L1886.42,759.812L1889.74,786.146L1859.85,854.288L1808.35,883.37L1785.86,883.37L1766.49,877.004L1747.13,883.37L1724.63,883.37L1673.13,854.288L1643.24,786.146Z" style="fill:rgb(236,229,212);"/>
                </g>
                <g transform="matrix(0.436846,0,0,0.39821,917.231,23.0629)">
                    <path d="M1815.22,879.001L1748.07,879.001L1731.29,857.785L1725.47,777.27L1748.07,751.057L1767.13,741.481L1796.15,741.481L1815.22,751.057L1837.82,777.27L1832,857.785L1815.22,879.001Z" style="fill:rgb(236,229,212);"/>
                </g>
                <g transform="matrix(0.436846,0,0,0.436846,915.711,-5.5847)">
                    <path d="M1804.59,838.632L1758.68,838.632L1737.3,777.27L1748.07,759.057L1767.13,749.481L1796.15,749.481L1815.22,759.057L1829.93,777.27L1804.59,838.632Z" style="fill:rgb(213,207,190);"/>
                </g>
                <g transform="matrix(0.571492,0,0,0.414781,681.526,13.1164)">
                    <path d="M1773.39,802.514L1775.19,801.507L1788.14,803.846L1791.18,810.076L1791.18,838.505L1788.14,842.715L1782.9,842.715L1779.32,838.505L1775.19,842.715L1771.01,842.715L1770.89,842.247L1770.75,842.247L1766.63,838.037L1763.04,842.247L1757.8,842.247L1754.76,838.037L1754.76,809.609L1757.8,803.378L1770.75,801.039L1773.39,802.514Z" style="fill:rgb(64,56,34);"/>
                </g>
                <g transform="matrix(0.436846,0,0,0.436846,924.18,1.78445)">
                    <path d="M1731.41,694.635L1712.81,694.635L1693.89,701.636L1680.75,721.751L1690.38,732.311L1706.48,736.252L1725.97,724.847L1742.03,721.751L1736.74,709.47L1742.03,705.612L1742.03,701.636L1731.41,694.635Z" style="fill:rgb(236,229,212);"/>
                </g>
                <g transform="matrix(0.436846,0,0,0.436846,923.192,-4.35429)">
                    <path d="M1727.59,719.497L1718.47,714.231L1704.31,719.497L1698.77,726.055L1704.31,737.233L1712.07,737.233L1733.41,730.582L1727.59,719.497Z" style="fill:rgb(73,73,73);"/>
                </g>
                <g transform="matrix(0.352856,0,0,0.310919,1067.33,87.0352)">
                    <path d="M1727.59,719.497L1718.47,714.231L1704.31,719.497L1698.77,726.055L1704.31,737.233L1712.07,737.233L1733.41,730.582L1727.59,719.497Z"/>
                </g>
                <g transform="matrix(0.100635,0,0,0.100208,1497.01,239.108)">
                    <path d="M1727.59,719.497L1718.47,714.231L1704.31,719.497L1698.77,726.055L1704.31,737.233L1712.07,737.233L1733.41,730.582L1727.59,719.497Z" style="fill:white;"/>
                </g>
                <g transform="matrix(-0.436846,0,0,0.436846,2465.27,1.78445)">
                    <path d="M1731.41,694.635L1712.81,694.635L1693.89,701.636L1680.75,721.751L1690.38,732.311L1706.48,736.252L1725.97,724.847L1742.03,721.751L1736.74,709.47L1742.03,705.612L1742.03,701.636L1731.41,694.635Z" style="fill:rgb(236,229,212);"/>
                </g>
                <g transform="matrix(-0.436846,0,0,0.436846,2466.11,-3.74898)">
                    <path d="M1727.59,719.497L1718.47,714.231L1704.31,719.497L1698.77,726.055L1704.31,737.233L1712.07,737.233L1733.41,730.582L1727.59,719.497Z" style="fill:rgb(73,73,73);"/>
                </g>
                <g transform="matrix(2.13705,0,0,2.13705,-2547.88,-60.0492)">
                    <g transform="matrix(0.580687,0,0,0.786447,573.562,-169.799)">
                        <path d="M2432,472.827L2437.81,471.888L2437.59,474.347L2435.85,475.347L2432,476.056L2431.39,475.347L2431.29,475.103L2431.18,475.347L2430.57,476.056L2426.73,475.347L2424.99,474.347L2424.76,471.888L2430.57,472.827L2432,472.827Z" style="fill:rgb(156,93,81);"/>
                    </g>
                    <g>
                        <g transform="matrix(0.144432,0,0,-0.212676,1922.4,284.31)">
                            <path d="M420.566,386.872L416.372,387.855L416.372,384.837L419.573,383.967L420.566,386.872Z" style="fill:white;"/>
                        </g>
                        <g transform="matrix(-0.0866594,0,0,0.127606,2019.91,154.536)">
                            <path d="M422.873,386.72L415.206,387.68L417.439,382.837L421.543,382.837L422.873,386.72Z" style="fill:white;"/>
                        </g>
                    </g>
                    <g transform="matrix(-1,0,0,1,3970.43,0)">
                        <g transform="matrix(0.144432,0,0,-0.212676,1922.4,284.31)">
                            <path d="M420.566,386.872L416.372,387.855L416.372,384.837L419.573,383.967L420.566,386.872Z" style="fill:white;"/>
                        </g>
                        <g transform="matrix(-0.0866594,0,0,0.127606,2019.94,154.565)">
                            <path d="M422.873,386.72L415.206,387.68L417.439,382.837L421.543,382.837L422.873,386.72Z" style="fill:white;"/>
                        </g>
                    </g>
                </g>
                <g transform="matrix(-0.352856,0,0,0.310919,2321.97,87.6405)">
                    <path d="M1727.59,719.497L1718.47,714.231L1704.31,719.497L1698.77,726.055L1704.31,737.233L1712.07,737.233L1733.41,730.582L1727.59,719.497Z"/>
                </g>
                <g transform="matrix(0.436846,0,0,0.436846,923.192,-6.53852)">
                    <path d="M1766.66,831.682L1773.16,859.545L1791.06,859.545L1799.33,854.399L1791.06,864.428L1770.1,867.702L1766.24,867.058L1762.38,867.702L1741.41,864.428L1733.14,854.399L1741.41,859.545L1759.32,859.545L1765.81,831.682L1766.12,829.343L1766.24,829.852L1766.36,829.343L1766.66,831.682Z" style="fill:rgb(64,56,34);"/>
                </g>
                <g transform="matrix(-0.100635,0,0,0.100208,1887.48,239.713)">
                    <path d="M1727.59,719.497L1718.47,714.231L1704.31,719.497L1698.77,726.055L1704.31,737.233L1712.07,737.233L1733.41,730.582L1727.59,719.497Z" style="fill:white;"/>
                </g>
                <g transform="matrix(0.436846,0,0,0.436846,922.376,-6.53852)">
                    <path d="M1786.7,865.597L1778.04,875.187L1769.74,873.34L1768.28,871.422L1766.84,873.34L1759.84,875.187L1749.51,865.597L1749.51,870.779L1758.37,877.87L1768.28,877.87L1778.04,879.036L1786.7,871.422L1786.7,865.597Z" style="fill:rgb(64,56,34);"/>
                </g>
            </g>
        </g>
    </g>
</svg>
