<?xml version="1.0" encoding="UTF-8" standalone="no"?>
<!DOCTYPE svg PUBLIC "-//W3C//DTD SVG 1.1//EN" "http://www.w3.org/Graphics/SVG/1.1/DTD/svg11.dtd">
<svg width="100%" height="100%" viewBox="0 0 151 93" version="1.1" xmlns="http://www.w3.org/2000/svg" xmlns:xlink="http://www.w3.org/1999/xlink" xml:space="preserve" xmlns:serif="http://www.serif.com/" style="fill-rule:evenodd;clip-rule:evenodd;stroke-linejoin:round;stroke-miterlimit:1.41421;">
    <g transform="matrix(1,0,0,1,-3139.55,-1279.74)">
        <g transform="matrix(1,0,0,1,32.0457,1002.57)">
            <g id="Film" transform="matrix(1,0,0,1,2027.02,277.168)">
                <g transform="matrix(1,0,0,1,-10,-101.127)">
                    <path d="M1241.48,193.711L1090.48,193.711L1090.48,101.127L1094.9,101.127L1094.9,109.711L1106.9,109.711L1106.9,101.127L1225.9,101.127L1225.9,109.711L1237.9,109.711L1237.9,101.127L1241.48,101.127L1241.48,193.711ZM1106.9,193.711L1094.9,193.711L1106.9,193.711ZM1237.9,193.711L1225.9,193.711L1237.9,193.711ZM1106.9,177.711L1094.9,177.711L1094.9,189.711L1106.9,189.711L1106.9,177.711ZM1237.9,177.711L1225.9,177.711L1225.9,189.711L1237.9,189.711L1237.9,177.711ZM1106.9,161.711L1094.9,161.711L1094.9,173.711L1106.9,173.711L1106.9,161.711ZM1237.9,161.711L1225.9,161.711L1225.9,173.711L1237.9,173.711L1237.9,161.711ZM1237.9,145.711L1225.9,145.711L1225.9,157.711L1237.9,157.711L1237.9,145.711ZM1106.9,145.711L1094.9,145.711L1094.9,157.711L1106.9,157.711L1106.9,145.711ZM1237.9,129.711L1225.9,129.711L1225.9,141.711L1237.9,141.711L1237.9,129.711ZM1106.9,129.711L1094.9,129.711L1094.9,141.711L1106.9,141.711L1106.9,129.711ZM1237.9,113.711L1225.9,113.711L1225.9,125.711L1237.9,125.711L1237.9,113.711ZM1106.9,113.711L1094.9,113.711L1094.9,125.711L1106.9,125.711L1106.9,113.711Z" style="fill:rgb(105,72,69);"/>
                </g>
                <g transform="matrix(0.790351,0,0,0.899173,222.119,-90.4297)">
                    <rect x="1111.36" y="101.589" width="141.322" height="99.375" style="fill:rgb(64,36,33);"/>
                </g>
            </g>
        </g>
        <g transform="matrix(1,0,0,1,32.0457,1002.57)">
            <g id="Film1" serif:id="Film" transform="matrix(1,0,0,1,2027.02,277.168)">
                <g transform="matrix(1,0,0,1,-10,-101.127)">
                    <path d="M1241.48,193.711L1090.48,193.711L1090.48,101.127L1094.9,101.127L1094.9,109.711L1106.9,109.711L1106.9,101.127L1225.9,101.127L1225.9,109.711L1237.9,109.711L1237.9,101.127L1241.48,101.127L1241.48,193.711ZM1106.9,193.711L1094.9,193.711L1106.9,193.711ZM1237.9,193.711L1225.9,193.711L1237.9,193.711ZM1106.9,177.711L1094.9,177.711L1094.9,189.711L1106.9,189.711L1106.9,177.711ZM1237.9,177.711L1225.9,177.711L1225.9,189.711L1237.9,189.711L1237.9,177.711ZM1106.9,161.711L1094.9,161.711L1094.9,173.711L1106.9,173.711L1106.9,161.711ZM1237.9,161.711L1225.9,161.711L1225.9,173.711L1237.9,173.711L1237.9,161.711ZM1237.9,145.711L1225.9,145.711L1225.9,157.711L1237.9,157.711L1237.9,145.711ZM1106.9,145.711L1094.9,145.711L1094.9,157.711L1106.9,157.711L1106.9,145.711ZM1237.9,129.711L1225.9,129.711L1225.9,141.711L1237.9,141.711L1237.9,129.711ZM1106.9,129.711L1094.9,129.711L1094.9,141.711L1106.9,141.711L1106.9,129.711ZM1237.9,113.711L1225.9,113.711L1225.9,125.711L1237.9,125.711L1237.9,113.711ZM1106.9,113.711L1094.9,113.711L1094.9,125.711L1106.9,125.711L1106.9,113.711Z" style="fill:rgb(105,72,69);"/>
                </g>
                <g transform="matrix(0.790351,0,0,0.899173,222.119,-90.4297)">
                    <rect x="1111.36" y="101.589" width="141.322" height="99.375" style="fill:rgb(64,36,33);"/>
                </g>
            </g>
        </g>
        <g transform="matrix(1,0,0,1,32.0457,1002.57)">
            <g id="Pigeon" transform="matrix(1.10982,0,0,1.09859,1055.1,272.405)">
                <g transform="matrix(0.436846,0,0,0.436846,923.192,-4.35429)">
                    <path d="M2275.43,42.586L2290.73,42.586L2321.56,54.02L2337.61,84.152L2336.15,107.22L2345.58,139.961L2324.56,167.162L2293.73,179.598L2275.97,167.162L2275.7,166.688L2275.43,167.162L2257.67,179.598L2226.83,167.162L2205.82,139.961L2215.25,107.22L2213.79,84.152L2229.83,54.02L2260.67,42.586L2275.43,42.586Z" style="fill:rgb(149,149,149);"/>
                </g>
                <g transform="matrix(0.436846,0,0,0.436846,923.192,-4.35429)">
                    <path d="M2275.72,43.82L2289.99,45.586L2312.81,63.977L2318.99,90.636L2312.81,112.028L2300.23,130.82L2292.99,179.598L2275.33,167.23L2257.67,179.598L2250.43,130.82L2237.85,112.028L2231.67,90.636L2237.85,63.977L2260.67,45.586L2274.93,43.82L2274.96,43.725L2275.33,43.771L2275.7,43.725L2275.72,43.82Z" style="fill:rgb(149,149,149);"/>
                </g>
                <g transform="matrix(0.436846,0,0,0.436846,923.192,-4.35429)">
                    <path d="M2275.72,43.82L2289.99,45.586L2312.81,63.977L2318.99,90.636L2312.81,112.028L2300.23,130.82L2292.99,179.598L2275.33,167.23L2257.67,179.598L2250.43,130.82L2237.85,112.028L2231.67,90.636L2237.85,63.977L2260.67,45.586L2274.93,43.82L2274.96,43.725L2275.33,43.771L2275.7,43.725L2275.72,43.82Z" style="fill:rgb(149,149,149);"/>
                </g>
                <g transform="matrix(-0.0135475,0.719159,-0.598295,-0.0162843,2100.93,-1547.16)">
                    <path d="M2230.68,273.652L2241.37,276.048L2237.29,291.894L2237.63,306.883L2218.93,301.215L2220.88,283.771L2230.68,273.652Z" style="fill:rgb(149,149,149);"/>
                </g>
                <g transform="matrix(-0.0135475,0.719159,-0.598295,-0.0162843,2100.93,-1547.16)">
                    <path d="M2230.68,273.652L2225.71,283.662L2226,296.507L2223.81,300.753L2217.36,300.899L2218.25,298.673L2219.59,295.307L2220.88,283.771L2230.68,273.652Z" style="fill:rgb(149,149,149);"/>
                </g>
                <g transform="matrix(0.436846,0,0,0.436846,923.122,-4.28426)">
                    <path d="M2260.67,42.586L2232.96,54.02L2219.27,84.152L2222,87.985L2244.28,109.155L2251,128.622L2239.31,113.681L2219.27,109.155L2215.25,107.22L2213.79,84.152L2229.83,54.02L2260.67,42.586Z" style="fill:rgb(149,149,149);"/>
                </g>
                <g transform="matrix(-0.436846,0,0,0.436846,2911.49,-4.5775)">
                    <path d="M2260.67,43.586L2232.96,55.02L2219.27,84.152L2222,87.985L2244.28,109.155L2251,128.622L2239.31,113.681L2219.27,109.155L2215.25,107.22L2213.79,84.152L2229.83,55.02L2260.67,43.586Z" style="fill:rgb(149,149,149);"/>
                </g>
                <g transform="matrix(0.0866759,-0.497393,0.469433,0.112436,1602.33,1157.17)">
                    <path d="M2292.9,191.373L2302.29,194.19L2303.68,200.334L2301.49,210.66L2288.85,219.874L2279.06,211.079L2280.25,198.26L2283.35,195.539L2292.9,191.373Z" style="fill:rgb(149,149,149);"/>
                </g>
                <g transform="matrix(0.0135475,0.719159,0.598295,-0.0162843,1733.47,-1547.84)">
                    <path d="M2238.11,270.051L2241.37,276.048L2237.29,291.66L2237.65,307.702L2218.93,301.215L2219.8,282.906L2238.11,270.051Z" style="fill:rgb(149,149,149);"/>
                </g>
                <g transform="matrix(-0.0866759,-0.497393,-0.469433,0.112436,2231.39,1157.17)">
                    <path d="M2292.9,191.373L2302.29,194.19L2303.68,200.334L2301.49,210.66L2288.85,219.874L2279.06,211.079L2280.25,198.26L2283.35,195.539L2292.9,191.373Z" style="fill:rgb(149,149,149);"/>
                </g>
                <g transform="matrix(0.0725019,-0.416055,0.392667,0.0940491,1650.6,974.572)">
                    <path d="M2292.9,191.373L2302.29,194.19L2303.68,200.334L2301.49,210.66L2288.85,219.874L2279.06,211.079L2280.25,198.26L2283.35,195.539L2292.9,191.373Z" style="fill:rgb(149,149,149);"/>
                </g>
                <g transform="matrix(0.0724761,-0.415907,0.321354,0.0769686,1665.26,977.753)">
                    <path d="M2292.68,189.751L2301.77,193.379L2302.89,199.435L2301.18,210.684L2288.22,220.751L2279.62,211.916L2280.55,198.165L2283.49,195.19L2292.68,189.751Z" style="fill:rgb(149,149,149);"/>
                </g>
                <g transform="matrix(-0.0724761,-0.415907,-0.321354,0.0769686,2168.06,977.753)">
                    <path d="M2292.68,189.751L2301.77,193.379L2302.89,199.435L2301.18,210.684L2288.22,220.751L2279.62,211.916L2280.55,198.165L2283.49,195.19L2292.68,189.751Z" style="fill:rgb(149,149,149);"/>
                </g>
                <g transform="matrix(0.0302153,-0.150744,0.133973,0.0278971,1800.96,380.355)">
                    <path d="M2290.92,191.605L2302.21,198.376L2302.21,211.916L2290.92,218.687L2279.62,211.916L2279.62,198.376L2290.92,191.605Z" style="fill:rgb(149,149,149);"/>
                </g>
                <g transform="matrix(-0.0302153,-0.150744,-0.133973,0.0278971,2032.77,380.355)">
                    <path d="M2290.92,191.605L2302.21,198.376L2302.21,211.916L2290.92,218.687L2279.62,211.916L2279.62,198.376L2290.92,191.605Z" style="fill:rgb(149,149,149);"/>
                </g>
                <g transform="matrix(0.0225195,-0.11235,0.0998499,0.0207917,1824.15,292.267)">
                    <path d="M2290.92,191.605L2302.21,198.376L2302.21,211.916L2290.92,218.687L2279.62,211.916L2279.62,198.376L2290.92,191.605Z" style="fill:rgb(149,149,149);"/>
                </g>
                <g transform="matrix(-0.0225195,-0.11235,-0.0998499,0.0207917,2006.95,292.267)">
                    <path d="M2290.92,191.605L2302.21,198.376L2302.21,211.916L2290.92,218.687L2279.62,211.916L2279.62,198.376L2290.92,191.605Z" style="fill:rgb(149,149,149);"/>
                </g>
                <g transform="matrix(0.0135475,0.719159,0.598295,-0.0162843,1733.91,-1547.84)">
                    <path d="M2262.1,269.216L2255.38,291.787L2237.25,306.522L2236.93,292.205L2242.1,273.647L2244.56,256.044L2247.87,243.979L2262.1,269.216Z" style="fill:rgb(149,149,149);"/>
                </g>
                <g transform="matrix(-0.0135475,0.719159,-0.598295,-0.0162843,2100.5,-1547.16)">
                    <path d="M2262.1,269.216L2255.38,291.787L2237.25,306.522L2236.93,292.205L2242.1,273.647L2244.56,256.044L2247.87,243.979L2262.1,269.216Z" style="fill:rgb(149,149,149);"/>
                </g>
                <g transform="matrix(-0.0135475,0.719159,-0.598295,-0.0162843,2100.5,-1547.16)">
                    <path d="M2262.1,269.216L2255.38,291.787L2244.41,300.039L2248.95,291.932L2252.09,271.079L2250.11,255.801L2247.87,243.979L2262.1,269.216Z" style="fill:rgb(149,149,149);"/>
                </g>
                <g transform="matrix(0.310107,0,0,0.366754,1249.49,-16.4473)">
                    <path d="M2184.21,210.8L2178.15,205.921L2128.69,205.921L2120.7,210.8L2117.79,210.8L2110.75,205.921L2113.26,197.936L2115.33,192.72L2119.11,189.018L2122.92,188.018L2132.41,178.624L2144.2,170.46L2150.6,154.542L2156.24,154.542L2164.66,170.46L2178.15,178.624L2182,188.018L2187.12,189.018L2189.23,192.72L2191.66,197.936L2193.22,205.921L2187.12,210.8L2184.21,210.8Z" style="fill:rgb(149,149,149);"/>
                </g>
                <g transform="matrix(-0.209384,0,0,-0.368876,2369.66,172.189)">
                    <path d="M2212.72,303.242L2112.62,303.242L2152.18,258.376L2162.74,255.267L2173.15,258.376L2212.72,303.242Z" style="fill:rgb(149,149,149);"/>
                </g>
                <g transform="matrix(-0.188931,0,0,-0.348257,2325.43,166.867)">
                    <path d="M2215.1,303.727L2110.24,303.727L2152.18,261.246L2162.8,258.782L2173.15,261.246L2215.1,303.727Z" style="fill:rgb(149,149,149);"/>
                </g>
                <g transform="matrix(-0.209384,0,0,-0.368876,2369.8,172.189)">
                    <path d="M2206.23,310.732L2122.53,310.732L2111.63,303.493L2126.87,289.481L2157.01,269.733L2168.33,269.733L2198.88,289.481L2215.03,301.605L2206.23,310.732Z" style="fill:rgb(149,149,149);"/>
                </g>
                <g transform="matrix(0.436846,0,0,0.436846,923.192,-4.35429)">
                    <path d="M2275.2,152.472L2276.07,149.055L2285.32,146.664L2293.31,143.74L2284.15,161.787L2277.92,176.821L2276.16,178.797L2276.14,178.895L2276.07,178.895L2274.33,178.895L2274.26,178.895L2274.24,178.797L2272.48,176.821L2266.61,161.787L2257.1,143.74L2265.08,146.664L2274.33,149.055L2275.2,152.472Z" style="fill:rgb(149,149,149);"/>
                </g>
                <g transform="matrix(-0.209384,0,0,-0.368876,2370.16,172.504)">
                    <path d="M2200.4,308.371L2183.74,304.91L2164.45,302.077L2144.15,304.91L2127.43,308.371L2156.35,289.989L2164.45,275.066L2172.27,289.989L2200.4,308.371Z" style="fill:rgb(149,149,149);"/>
                </g>
                <g transform="matrix(-0.40607,0,0,0.335042,2863.97,-39.2268)">
                    <path d="M2312.47,288.869L2310.67,288.869L2305.31,280.671L2307.86,268.492L2321.54,265.589L2329.65,268.492L2332.12,280.486L2332.7,280.486L2335.18,268.47L2343.18,265.567L2356.97,268.47L2359.56,274.231L2354.24,288.869L2352.4,288.869L2338.65,293.294L2332.7,285.778L2326.12,293.294L2312.47,288.869Z" style="fill:rgb(149,149,149);"/>
                </g>
                <g transform="matrix(-0.436846,0,0,0.436846,2910.56,-4.35429)">
                    <path d="M2274.77,138.186L2277.13,134.689L2280.77,132.444L2287.68,134.689L2290.88,139.463L2294.2,141.566L2280.77,144.849L2277.13,149.048L2275.67,149.743L2275.63,149.713L2275.59,149.743L2274.77,152.354L2273.95,149.743L2273.91,149.713L2273.87,149.743L2272.41,149.048L2268.77,144.849L2255.34,141.566L2258.66,139.463L2261.86,134.689L2268.77,132.444L2272.41,134.689L2274.77,138.186Z" style="fill:rgb(149,149,149);"/>
                </g>
                <g transform="matrix(-1,0,0,1,3833.82,0)">
                    <g transform="matrix(0.436846,0,0,0.436846,923.192,-4.35429)">
                        <path d="M2267.98,140.617L2260.12,140.617L2257.08,143.503L2265.41,146.549L2274.78,156.722L2272.79,149.274L2267.98,140.617Z" style="fill:rgb(149,149,149);"/>
                    </g>
                    <g transform="matrix(-0.436846,0,0,0.436846,2910.78,-4.35429)">
                        <path d="M2267.98,140.617L2260.12,140.617L2257.08,143.503L2265.41,146.549L2275.05,156.822L2272.79,149.274L2267.98,140.617Z" style="fill:rgb(149,149,149);"/>
                    </g>
                </g>
            </g>
        </g>
    </g>
</svg>
