<?xml version="1.0" encoding="UTF-8" standalone="no"?>
<!DOCTYPE svg PUBLIC "-//W3C//DTD SVG 1.1//EN" "http://www.w3.org/Graphics/SVG/1.1/DTD/svg11.dtd">
<svg width="100%" height="100%" viewBox="0 0 151 93" version="1.1" xmlns="http://www.w3.org/2000/svg" xmlns:xlink="http://www.w3.org/1999/xlink" xml:space="preserve" xmlns:serif="http://www.serif.com/" style="fill-rule:evenodd;clip-rule:evenodd;stroke-linejoin:round;stroke-miterlimit:1.41421;">
    <g transform="matrix(1,0,0,1,-2930.64,-1384.22)">
        <g transform="matrix(1,0,0,1,32.0457,1002.57)">
            <g id="Film" transform="matrix(1,0,0,1,1818.11,381.641)">
                <g transform="matrix(1,0,0,1,-10,-101.127)">
                    <path d="M1241.48,193.711L1090.48,193.711L1090.48,101.127L1094.9,101.127L1094.9,109.711L1106.9,109.711L1106.9,101.127L1225.9,101.127L1225.9,109.711L1237.9,109.711L1237.9,101.127L1241.48,101.127L1241.48,193.711ZM1106.9,193.711L1094.9,193.711L1106.9,193.711ZM1237.9,193.711L1225.9,193.711L1237.9,193.711ZM1106.9,177.711L1094.9,177.711L1094.9,189.711L1106.9,189.711L1106.9,177.711ZM1237.9,177.711L1225.9,177.711L1225.9,189.711L1237.9,189.711L1237.9,177.711ZM1106.9,161.711L1094.9,161.711L1094.9,173.711L1106.9,173.711L1106.9,161.711ZM1237.9,161.711L1225.9,161.711L1225.9,173.711L1237.9,173.711L1237.9,161.711ZM1237.9,145.711L1225.9,145.711L1225.9,157.711L1237.9,157.711L1237.9,145.711ZM1106.9,145.711L1094.9,145.711L1094.9,157.711L1106.9,157.711L1106.9,145.711ZM1237.9,129.711L1225.9,129.711L1225.9,141.711L1237.9,141.711L1237.9,129.711ZM1106.9,129.711L1094.9,129.711L1094.9,141.711L1106.9,141.711L1106.9,129.711ZM1237.9,113.711L1225.9,113.711L1225.9,125.711L1237.9,125.711L1237.9,113.711ZM1106.9,113.711L1094.9,113.711L1094.9,125.711L1106.9,125.711L1106.9,113.711Z" style="fill:rgb(105,72,69);"/>
                </g>
                <g transform="matrix(0.790351,0,0,0.899173,222.119,-90.4297)">
                    <rect x="1111.36" y="101.589" width="141.322" height="99.375" style="fill:rgb(64,36,33);"/>
                </g>
            </g>
        </g>
        <g transform="matrix(1,0,0,1,32.0457,1002.57)">
            <g id="Squirrel" transform="matrix(0.862619,0,0,0.819723,1256.31,374.77)">
                <g transform="matrix(0.365688,0.238969,-0.238969,0.365688,1117.36,-572.734)">
                    <path d="M2546.94,163.431L2451.06,140.911L2427.9,114.976L2431.08,67.07L2458.96,28.787L2502.83,10.775L2527.6,14.837L2546.54,48.356L2546.54,71.869L2527.25,91.123L2531,115.227L2546.94,163.431Z" style="fill:rgb(126,102,96);"/>
                </g>
                <g transform="matrix(0.365688,0.238969,-0.238969,0.365688,1117.36,-572.734)">
                    <path d="M2445.46,79.938L2451.06,140.911L2432.58,112.638L2433.13,68.363L2461.75,30.58L2503.74,12.163L2514.46,15.22L2525.61,19.094L2504.05,19.39L2465.88,36.901L2445.46,79.938Z" style="fill:rgb(140,128,108);"/>
                </g>
                <g transform="matrix(0.365688,0.238969,-0.238969,0.365688,1117.36,-572.734)">
                    <path d="M2546.94,163.431L2451.06,140.911L2437.24,139.052L2511.92,90.245L2529.16,60.704L2531.71,33.518L2540.24,50.918L2543.19,69.812L2524.72,88.671L2527.42,113.964L2546.94,163.431Z" style="fill:rgb(132,117,114);"/>
                </g>
                <g transform="matrix(0.436846,0,0,0.436846,923.192,-4.35429)">
                    <path d="M2431.45,117.984L2431.45,117.989L2448.51,116.822L2474.14,129.254L2477.9,126.313L2503.49,100.017L2508.71,105.823L2511.53,113.017L2513.78,125.612L2509.71,146.342L2501.38,164.744L2496.43,181.836L2502.78,206.775L2506.71,225.683L2496.43,239.307L2479.62,245.307L2468.92,239.101L2430.78,242.337L2430.78,242.413L2430.5,242.371L2430.22,242.413L2430.22,242.337L2392.08,239.101L2381.38,245.307L2364.57,239.307L2355.74,225.683L2357.22,206.775L2364.57,181.836L2359.62,164.744L2351.3,146.342L2347.22,125.612L2349.47,113.017L2352.3,105.823L2357.51,100.017L2383.11,126.313L2386.86,129.254L2412.49,116.822L2429.55,117.989C2429.55,117.989 2429.55,117.984 2429.55,117.984L2429.68,117.984L2429.95,117.986L2430.22,117.984L2430.22,117.96L2430.5,117.979L2430.78,117.96L2430.78,117.984L2431.05,117.986L2431.33,117.984L2431.45,117.984Z" style="fill:rgb(169,153,128);"/>
                </g>
                <g transform="matrix(0.43517,-0.0382307,0.0382307,0.43517,918.404,85.9651)">
                    <path d="M2375.36,152.287L2369.03,178.419L2369.39,152.287L2365.38,118.857L2370.93,132.624L2375.36,152.287Z" style="fill:rgb(107,75,75);"/>
                </g>
                <g transform="matrix(-0.43517,-0.0382307,-0.0382307,0.43517,3050.77,85.9651)">
                    <path d="M2375.36,152.287L2369.03,178.419L2369.39,152.287L2365.38,118.857L2370.93,132.624L2375.36,152.287Z" style="fill:rgb(86,66,66);"/>
                </g>
                <g transform="matrix(0.436846,0,0,0.436846,920.756,-22.7018)">
                    <path d="M2483.62,245.041L2488.35,242.389L2481.53,251.871L2472.16,282.518L2452.41,296.531L2438.47,298.307L2435.76,297.909L2433.05,298.307L2419.11,296.531L2399.37,282.518L2389.99,251.871L2383.18,242.389L2387.9,245.041L2483.62,245.041Z" style="fill:rgb(183,166,144);"/>
                </g>
                <g transform="matrix(0.38663,0,0,0.38663,1043.07,-9.12613)">
                    <path d="M2483.62,245.041L2488.35,242.389L2481.53,251.871L2472.16,282.518L2469.52,286.132L2452.41,296.531L2438.47,298.307L2435.76,297.909L2433.05,298.307L2419.11,296.531L2401.49,286.132L2399.37,282.518L2389.99,251.871L2383.18,242.389L2387.9,245.041L2483.62,245.041Z"/>
                </g>
                <g transform="matrix(0.30056,0,0,0.436846,1253,-20.0807)">
                    <path d="M2454.33,247.13L2449.85,276.654L2442.13,287.694L2436.68,289.093L2434.9,288.566L2433.12,289.093L2427.67,287.694L2419.95,276.654L2415.47,247.13L2454.33,247.13Z" style="fill:rgb(255,254,254);"/>
                </g>
                <g transform="matrix(0.30056,0,0,0.436846,1253,-20.0807)">
                    <path d="M2434.9,287.507L2436.68,289.093L2434.9,288.566L2433.12,289.093L2434.9,287.507Z" style="fill:rgb(128,121,121);"/>
                </g>
                <g transform="matrix(0.236045,0,0,-0.436846,1409.14,217.474)">
                    <path d="M2441.4,270.348L2436.35,270.348L2437.61,259.448L2440.14,259.448L2441.4,270.348Z" style="fill:rgb(128,121,121);"/>
                </g>
                <g transform="matrix(0.436846,0,0,0.436846,923.192,-4.35429)">
                    <path d="M2450.69,128.09L2488.08,134.141L2495.8,139.162L2491.08,143.433L2484.2,160.265L2477.22,160.265L2468.16,182.429L2485.21,177.088L2492.12,182.429L2495.8,193.664L2495.8,214.276L2494.12,224.835L2489.82,232.348L2476.09,237.448L2467.99,233.448L2449.88,235.349L2435.94,242.59L2433.83,240.988L2430.23,241.59L2426.54,240.988L2424.43,242.59L2410.49,235.349L2392.38,233.448L2384.28,237.448L2370.55,232.348L2366.25,224.835L2364.57,214.276L2364.57,193.664L2368.25,182.429L2375.16,177.088L2392.21,182.429L2383.15,160.265L2376.17,160.265L2369.29,143.433L2364.57,139.162L2372.29,134.141L2409.68,128.09L2450.69,128.09Z" style="fill:rgb(132,117,113);"/>
                </g>
                <g transform="matrix(0.436846,0,0,0.436846,923.192,-4.35429)">
                    <path d="M2429.57,241.69L2424.43,242.59L2410.49,235.349L2392.38,233.448L2384.28,237.448L2366.55,232.348L2362.25,224.835L2360.57,214.276L2364.57,193.664L2368.35,214.823L2376.17,224.835L2384.28,230.484L2394.68,223.732L2410.49,230.484L2424.43,240.115L2429.28,240.017L2430.23,240.387L2431.18,240.017L2436.03,240.115L2449.97,230.484L2465.78,223.732L2476.18,230.484L2484.29,224.835L2492.11,214.823L2495.89,193.664L2499.89,214.276L2498.21,224.835L2493.9,232.348L2476.18,237.448L2468.08,233.448L2449.97,235.349L2445.33,237.755L2436.03,242.59L2430.89,241.69L2429.57,241.69Z" style="fill:rgb(114,114,114);"/>
                </g>
                <g transform="matrix(0.436846,0,0,0.436846,919.637,-4.35429)">
                    <path d="M2438.8,122.798L2440.38,123.125L2453.52,126.71L2484.69,132.104L2512.43,105.823L2502.44,132.104L2496.94,148.162L2496.94,161.591L2494.27,154.768L2490.1,154.768L2487.51,173.194L2467.17,175.2L2470.38,187.836L2465.3,197.333L2454.82,211.81L2449.54,229.927L2445.66,234.44L2444.87,228.32L2440.38,223.704L2438.33,224.927L2436.27,223.704L2431.82,228.32L2430.57,234.44L2426.93,229.574L2421.83,211.81L2412.42,197.333L2407.34,187.836L2410.64,175.088L2383.3,177.088L2383.3,152.87L2380.88,152.87L2379.23,157.793L2378.71,150.162L2374.21,132.104L2365.94,107.693L2363.1,105.823L2365.94,103.766L2391.96,132.104L2422.48,125.409L2436.27,123.125L2437.85,122.798L2438.33,123.125L2438.8,122.798Z" style="fill:rgb(102,90,86);"/>
                </g>
                <g transform="matrix(0.436846,0,0,0.436846,923.192,-4.35429)">
                    <path d="M2428.13,146.574L2423.99,139.815L2415.69,135.262L2397.22,147.605L2392.11,166.744L2384.99,160.471L2382.58,149.856L2379.7,151.797L2378.44,145.352L2379.7,138.68L2381.65,133.758L2385.86,130.254L2384.57,131.846L2384.99,131.846L2386.76,130.677L2413.69,120.344L2428.13,123.125L2429.71,122.798L2429.97,122.979L2430.69,122.798L2431.77,123.022L2432.85,122.798L2433.57,122.979L2433.84,122.798L2435.42,123.125L2449.86,120.344L2476.79,130.677L2478.55,131.846L2478.98,131.846L2477.68,130.254L2481.9,133.758L2483.85,138.68L2485.1,145.352L2483.85,151.797L2480.97,149.856L2478.55,160.471L2471.44,166.744L2466.32,147.605L2447.86,135.262L2439.55,139.815L2435.42,146.574L2428.13,146.574Z" style="fill:rgb(126,102,96);"/>
                </g>
                <g transform="matrix(0.436846,0,0,0.436846,923.192,-11.3438)">
                    <path d="M2430.23,240.073L2432.28,246.09L2431.42,250.257L2431.28,252.076L2430.23,253.2L2429.18,252.076L2429.04,250.257L2428.18,246.09L2430.23,240.073Z" style="fill:rgb(58,53,53);"/>
                </g>
                <g transform="matrix(0.436846,0,0,0.436846,920.498,-9.1323)">
                    <path d="M2440.27,249.589L2447.79,240.574L2441.99,251.939L2436.4,251.581L2430.8,251.939L2425,240.574L2430.8,248.324L2432.53,249.589L2436,249.589L2436.4,248.324L2436.79,249.589L2440.27,249.589Z" style="fill:rgb(58,53,53);"/>
                </g>
                <g id="Eye" transform="matrix(-0.744663,0,0,0.940746,3224.7,1.53691)">
                    <g transform="matrix(-0.586636,0,0,0.464361,3090.67,-5.33355)">
                        <path d="M2384.99,195.333L2375.16,175.088L2384.99,158.471L2398.28,162.975L2402.5,175.055L2402.41,175.2L2402.5,175.088L2400.71,186.836L2404.28,195.333L2398.28,188.99L2384.99,195.333Z" style="fill:rgb(231,225,225);"/>
                    </g>
                    <g transform="matrix(2.67491e-17,-0.436846,0.436846,2.67491e-17,1598.25,1077.27)">
                        <path d="M2292.65,192.472L2302.21,198.376L2305.41,213.686L2292.65,225.031L2274.87,211.916L2280.68,194.496L2292.65,192.472Z"/>
                    </g>
                    <g transform="matrix(9.76589e-18,-0.159489,0.159489,9.76589e-18,1657.1,440.065)">
                        <path d="M2290.92,191.605L2302.21,198.376L2302.21,211.916L2290.92,218.687L2279.62,211.916L2279.62,198.376L2290.92,191.605Z" style="fill:white;"/>
                    </g>
                </g>
                <g id="Eye1" serif:id="Eye" transform="matrix(0.744663,0,0,0.940746,745.38,1.53691)">
                    <g transform="matrix(-0.586636,0,0,0.464361,3090.67,-5.33355)">
                        <path d="M2384.99,195.333L2375.16,175.088L2384.99,158.471L2398.28,162.975L2402.5,175.055L2402.41,175.2L2402.5,175.088L2400.71,186.836L2404.28,195.333L2398.28,188.99L2384.99,195.333Z" style="fill:rgb(231,225,225);"/>
                    </g>
                    <g transform="matrix(2.67491e-17,-0.436846,0.436846,2.67491e-17,1598.25,1077.27)">
                        <path d="M2292.65,192.472L2302.21,198.376L2305.41,213.686L2292.65,225.031L2274.87,211.916L2280.68,194.496L2292.65,192.472Z"/>
                    </g>
                    <g transform="matrix(9.76589e-18,-0.159489,0.159489,9.76589e-18,1654.75,440.065)">
                        <path d="M2290.92,191.605L2302.21,198.376L2302.21,211.916L2290.92,218.687L2279.62,211.916L2279.62,198.376L2290.92,191.605Z" style="fill:white;"/>
                    </g>
                </g>
                <g transform="matrix(1,0,0,1,-0.259838,0)">
                    <g transform="matrix(-0.00385778,-0.0156962,-0.284436,0.0815693,2087.78,67.5633)">
                        <path d="M394.373,319.402L288.262,319.402L471.261,259.538L438.561,222.467L337.523,170.855L367.845,174.766L494.867,220.027L546.596,255.618L394.373,319.402Z" style="fill:rgb(57,54,54);"/>
                    </g>
                    <g transform="matrix(0.00121059,-0.016118,-0.295702,-0.0108535,2091.25,100.676)">
                        <path d="M394.373,319.402L288.262,319.402L471.261,259.538L438.561,222.467L337.523,170.855L367.845,174.766L494.867,220.027L546.596,255.618L394.373,319.402Z" style="fill:rgb(57,54,54);"/>
                    </g>
                    <g transform="matrix(0.00319973,-0.0158435,-0.292075,-0.0474342,2087.02,116.59)">
                        <path d="M394.373,319.402L288.262,319.402L471.261,259.538L438.561,222.467L337.523,170.855L367.845,174.766L494.867,220.027L546.596,255.618L394.373,319.402Z" style="fill:rgb(57,54,54);"/>
                    </g>
                </g>
                <g transform="matrix(-1,0,0,1,3969.82,0)">
                    <g transform="matrix(-0.00385778,-0.0156962,-0.284436,0.0815693,2087.78,67.5633)">
                        <path d="M394.373,319.402L288.262,319.402L471.261,259.538L438.561,222.467L337.523,170.855L367.845,174.766L494.867,220.027L546.596,255.618L394.373,319.402Z" style="fill:rgb(57,54,54);"/>
                    </g>
                    <g transform="matrix(0.00121059,-0.016118,-0.295702,-0.0108535,2091.25,100.676)">
                        <path d="M394.373,319.402L288.262,319.402L471.261,259.538L438.561,222.467L337.523,170.855L367.845,174.766L494.867,220.027L546.596,255.618L394.373,319.402Z" style="fill:rgb(57,54,54);"/>
                    </g>
                    <g transform="matrix(0.00319973,-0.0158435,-0.292075,-0.0474342,2087.02,116.59)">
                        <path d="M394.373,319.402L288.262,319.402L471.261,259.538L438.561,222.467L337.523,170.855L367.845,174.766L494.867,220.027L546.596,255.618L394.373,319.402Z" style="fill:rgb(57,54,54);"/>
                    </g>
                </g>
            </g>
        </g>
    </g>
</svg>
