<?xml version="1.0" encoding="UTF-8" standalone="no"?>
<!DOCTYPE svg PUBLIC "-//W3C//DTD SVG 1.1//EN" "http://www.w3.org/Graphics/SVG/1.1/DTD/svg11.dtd">
<svg width="100%" height="100%" viewBox="0 0 151 93" version="1.1" xmlns="http://www.w3.org/2000/svg" xmlns:xlink="http://www.w3.org/1999/xlink" xml:space="preserve" xmlns:serif="http://www.serif.com/" style="fill-rule:evenodd;clip-rule:evenodd;stroke-linejoin:round;stroke-miterlimit:1.41421;">
    <g transform="matrix(1,0,0,1,-2931.1,-1162.85)">
        <g transform="matrix(1,0,0,1,32.0457,1002.57)">
            <g id="Film" transform="matrix(1,0,0,1,1818.57,160.273)">
                <g transform="matrix(1,0,0,1,-10,-101.127)">
                    <path d="M1241.48,193.711L1090.48,193.711L1090.48,101.127L1094.9,101.127L1094.9,109.711L1106.9,109.711L1106.9,101.127L1225.9,101.127L1225.9,109.711L1237.9,109.711L1237.9,101.127L1241.48,101.127L1241.48,193.711ZM1106.9,193.711L1094.9,193.711L1106.9,193.711ZM1237.9,193.711L1225.9,193.711L1237.9,193.711ZM1106.9,177.711L1094.9,177.711L1094.9,189.711L1106.9,189.711L1106.9,177.711ZM1237.9,177.711L1225.9,177.711L1225.9,189.711L1237.9,189.711L1237.9,177.711ZM1106.9,161.711L1094.9,161.711L1094.9,173.711L1106.9,173.711L1106.9,161.711ZM1237.9,161.711L1225.9,161.711L1225.9,173.711L1237.9,173.711L1237.9,161.711ZM1237.9,145.711L1225.9,145.711L1225.9,157.711L1237.9,157.711L1237.9,145.711ZM1106.9,145.711L1094.9,145.711L1094.9,157.711L1106.9,157.711L1106.9,145.711ZM1237.9,129.711L1225.9,129.711L1225.9,141.711L1237.9,141.711L1237.9,129.711ZM1106.9,129.711L1094.9,129.711L1094.9,141.711L1106.9,141.711L1106.9,129.711ZM1237.9,113.711L1225.9,113.711L1225.9,125.711L1237.9,125.711L1237.9,113.711ZM1106.9,113.711L1094.9,113.711L1094.9,125.711L1106.9,125.711L1106.9,113.711Z" style="fill:rgb(105,72,69);"/>
                </g>
                <g transform="matrix(0.790351,0,0,0.899173,222.119,-90.4297)">
                    <rect x="1111.36" y="101.589" width="141.322" height="99.375" style="fill:rgb(64,36,33);"/>
                </g>
            </g>
        </g>
        <g transform="matrix(1,0,0,1,32.0457,1002.57)">
            <g id="Coyote" transform="matrix(1.60672,0,0,1.75445,-207.295,-119.84)">
                <g transform="matrix(0.436846,0,0,0.436846,923.192,-4.35429)">
                    <path d="M2427.84,407.914L2434.42,406.22L2446.87,410.165L2448.96,407.54L2464.18,387.541L2466.78,386.196L2469.43,389.253L2471.01,395.674L2471.14,406.914L2468.88,425.415L2464.18,429.301L2462.25,434.375L2463.53,449.634L2462.25,457.443L2456.09,469.247L2424.38,488.933L2424.36,488.894L2424.32,488.959L2392.61,469.273L2386.45,457.469L2385.18,449.66L2386.45,434.401L2384.52,429.327L2379.83,425.441L2377.56,406.94L2377.7,395.7L2379.27,389.279L2381.92,386.222L2384.52,387.567L2399.74,407.566L2401.83,410.191L2414.28,406.246L2420.86,407.94L2424.32,407.94L2427.84,407.914Z" style="fill:rgb(184,157,116);"/>
                </g>
                <g transform="matrix(0.436846,0,0,0.436846,923.192,-4.11238)">
                    <path d="M2397.29,445.972L2392.56,443.671L2388,449.046L2388,455.585L2395.56,454.277L2404.25,455.585L2397.29,445.972Z" style="fill:rgb(142,114,87);"/>
                </g>
                <g transform="matrix(-0.436846,0,0,0.436846,3041.4,-4.11238)">
                    <path d="M2397.29,445.972L2392.56,443.671L2388,449.046L2388,455.585L2395.56,454.277L2404.25,455.585L2397.29,445.972Z" style="fill:rgb(142,114,87);"/>
                </g>
                <g transform="matrix(0.242956,0,0,0.389866,1393.59,22.0672)">
                    <path d="M2382.44,391.849L2374.18,397.946L2374.18,406.67L2363.27,408.937L2354.79,422.339L2351.32,413.291L2342.87,408.937L2338.79,388.207L2339.04,375.612L2341.87,368.418L2346.64,364.992L2351.32,366.499L2378.68,388.908L2382.44,391.849Z" style="fill:rgb(190,149,109);"/>
                </g>
                <g transform="matrix(-0.242956,0,0,0.389866,2571,22.1788)">
                    <path d="M2382.44,391.849L2374.18,397.946L2374.18,406.67L2363.27,408.937L2354.79,422.339L2351.32,413.291L2342.87,408.937L2338.79,388.207L2339.04,375.612L2341.87,368.418L2346.64,364.992L2351.32,366.499L2378.68,388.908L2382.44,391.849Z" style="fill:rgb(190,149,109);"/>
                </g>
                <g transform="matrix(0.242956,0,0,0.389866,1392.72,18.5724)">
                    <path d="M2381.76,444.889L2473.86,444.889L2482.73,463.033L2426.92,489.073L2426.9,489.073L2391.37,474.599L2375.14,464.714L2381.76,444.889Z" style="fill:rgb(187,187,187);"/>
                </g>
                <g transform="matrix(0.242956,0,0,0.389866,1392.72,18.5724)">
                    <path d="M2399.53,459.273L2414.37,476.288L2426.92,478.427L2438.65,476.288L2455.36,460.567L2462.88,464.714L2482.73,463.033L2458.28,477.176L2426.92,489.073L2426.9,489.073L2390.68,475.315L2375.14,464.714L2388.77,464.714L2399.53,459.273Z" style="fill:rgb(142,142,142);"/>
                </g>
                <g transform="matrix(0.242956,0,0,0.389866,1393.59,22.0672)">
                    <path d="M2388.17,390.141L2401.31,392.013L2388.17,394.103L2374.18,397.946L2370.27,404.021L2363.27,408.937L2354.79,422.339L2351.32,413.291L2342.87,408.937L2351.32,407.792L2346.82,369.711L2345.53,367.836L2342.06,368.344L2346.82,364.545L2351.32,365.476L2388.17,390.141Z" style="fill:rgb(161,130,70);"/>
                </g>
                <g transform="matrix(-0.242956,0,0,0.389866,2571,22.1788)">
                    <path d="M2388.17,390.141L2401.31,392.013L2388.17,394.103L2374.18,397.946L2370.27,404.021L2363.27,408.937L2354.79,422.339L2351.32,413.291L2342.87,408.937L2351.32,407.792L2346.82,369.711L2344.74,368.344L2341.88,368.344L2346.82,364.545L2351.32,365.476L2388.17,390.141Z" style="fill:rgb(161,130,70);"/>
                </g>
                <g transform="matrix(0.206071,0,0,0.312897,1480.78,52.3375)">
                    <g>
                        <path d="M2378.68,394.624L2372.87,398.59L2368.48,405.637L2361.09,408.937L2354.79,422.339L2354.79,414.121L2342.87,408.937L2338.79,388.207L2339.04,375.612L2341.87,368.418L2341.87,364.161L2347.09,361.913L2378.68,388.908L2378.68,394.624Z" style="fill:rgb(213,209,209);"/>
                    </g>
                </g>
                <g transform="matrix(-0.206071,0,0,0.312897,2483.82,52.4492)">
                    <g>
                        <path d="M2378.68,394.624L2372.87,398.59L2368.48,405.637L2361.09,408.937L2354.79,422.339L2354.79,414.121L2342.87,408.937L2338.79,388.207L2339.04,375.612L2341.87,368.418L2341.87,364.161L2347.09,361.913L2378.68,388.908L2378.68,394.624Z" style="fill:rgb(213,209,209);"/>
                    </g>
                </g>
                <g transform="matrix(0.206071,0,0,0.312897,1480.78,52.3375)">
                    <g>
                        <path d="M2341.87,368.418L2341.87,364.142L2347.22,361.763L2345.16,365.34L2342.87,375.612L2345.16,389.81L2350.53,399.945L2361.09,408.937L2354.79,422.339L2354.79,414.121L2342.87,408.937L2338.79,388.207L2339.04,375.612L2341.87,368.418Z" style="fill:rgb(187,187,187);"/>
                    </g>
                </g>
                <g transform="matrix(-0.206071,0,0,0.312897,2483.82,52.4492)">
                    <g>
                        <path d="M2341.87,368.418L2341.87,364.142L2347.22,361.763L2345.16,365.34L2342.87,375.612L2345.16,389.81L2350.53,399.945L2361.09,408.937L2354.79,422.339L2354.79,414.121L2342.87,408.937L2338.79,388.207L2339.04,375.612L2341.87,368.418Z" style="fill:rgb(187,187,187);"/>
                    </g>
                </g>
                <g transform="matrix(0.436846,0,0,0.436846,920.285,-1.73322)">
                    <path d="M2452.03,435.861L2463.22,429.861L2439.37,473.056L2439.02,474.256L2436.53,475.256L2432.28,475.975L2432.22,476.02L2432.18,475.99L2432,476.02L2431.22,475.335L2430.43,476.02L2430.25,475.99L2430.22,476.02L2430.16,475.975L2425.91,475.256L2423.41,474.256L2423.06,473.056L2417.75,461.395L2398.22,429.861L2410.41,435.861L2452.03,435.861Z" style="fill:rgb(220,220,220);"/>
                </g>
                <g transform="matrix(0.436846,0,0,0.436846,923.192,-4.35429)">
                    <path d="M2424.51,442.116L2443.71,442.116L2449.82,443.405L2454.1,443.405L2438.44,462.149L2430.74,476.323L2429.42,476.323L2425.31,477.031L2424.5,476.329L2423.7,477.031L2419.58,476.323L2418.26,476.323L2410.57,462.149L2394.91,443.405L2399.19,443.405L2405.29,442.116L2424.51,442.116Z" style="fill:rgb(78,78,78);"/>
                </g>
                <g transform="matrix(1,0,0,1,-2.93706,0)">
                    <g transform="matrix(0.436846,0,0,0.436846,923.192,-4.35429)">
                        <path d="M2432,473.893L2437.81,471.888L2437.59,474.347L2435.85,475.347L2432,476.056L2431.39,475.347L2431.29,475.103L2431.18,475.347L2430.57,476.056L2426.73,475.347L2424.99,474.347L2424.76,471.888L2430.57,473.893L2432,473.893Z" style="fill:rgb(156,93,81);"/>
                    </g>
                    <g>
                        <g transform="matrix(0.144432,0,0,-0.212676,1922.4,284.31)">
                            <path d="M420.566,386.872L416.372,387.855L416.372,384.837L419.573,383.967L420.566,386.872Z" style="fill:white;"/>
                        </g>
                        <g transform="matrix(-0.0866594,0,0,0.127606,2019.94,153.951)">
                            <path d="M422.873,386.72L415.206,387.68L417.439,382.837L421.543,382.837L422.873,386.72Z" style="fill:white;"/>
                        </g>
                    </g>
                    <g transform="matrix(-1,0,0,1,3970.43,0)">
                        <g transform="matrix(0.144432,0,0,-0.212676,1922.4,284.31)">
                            <path d="M420.566,386.872L416.372,387.855L416.372,384.837L419.573,383.967L420.566,386.872Z" style="fill:white;"/>
                        </g>
                        <g transform="matrix(-0.0866594,0,0,0.127606,2019.94,153.951)">
                            <path d="M422.873,386.72L415.206,387.68L417.439,382.837L421.543,382.837L422.873,386.72Z" style="fill:white;"/>
                        </g>
                    </g>
                </g>
                <g transform="matrix(0.436846,0,0,0.436846,923.192,-4.35429)">
                    <path d="M2424.66,437.087L2424.72,436.908L2424.75,437.009L2424.79,436.908L2437.78,442.652L2447.57,443.265L2453.21,439.557L2456.72,442.652L2454.78,449.623L2437.78,460.251L2430.86,470.911L2424.75,472.569L2424.66,472.248L2424.56,472.569L2418.45,470.911L2411.54,460.251L2394.53,449.623L2392.6,442.652L2396.11,439.557L2401.75,443.265L2411.54,442.652L2424.52,436.908L2424.56,437.009L2424.6,436.908L2424.66,437.087Z" style="fill:rgb(220,220,220);"/>
                </g>
                <g transform="matrix(0.436846,0,0,0.436846,923.192,-4.35429)">
                    <path d="M2424.53,470.942L2436,459.115L2441.66,453.137L2451.96,449.686L2454.53,443.329L2452.96,439.621L2456.47,442.716L2454.53,449.686L2437.53,460.314L2430.61,470.975L2424.6,472.606L2424.56,472.633L2424.53,472.624L2424.5,472.633L2424.46,472.606L2418.45,470.975L2411.54,460.314L2394.53,449.686L2392.6,442.716L2396.11,439.621L2394.53,443.329L2397.1,449.686L2407.4,453.137L2413.06,459.115L2424.53,470.942Z" style="fill:rgb(206,206,206);"/>
                </g>
                <g transform="matrix(0.401415,0,0,0.436846,1006.42,-1.73322)">
                    <path d="M2422.1,423.861L2431.27,422.861L2440.39,423.861L2445.06,428.775L2448.17,430.639L2438.43,455.581L2438.43,459.532L2431.27,459.532L2431.25,459.409L2431.22,459.532L2424.06,459.532L2424.06,455.581L2420.95,441.556L2410.3,440.641L2400.06,434.174L2400.06,429.836L2414.32,430.639L2417.43,428.775L2422.1,423.861Z" style="fill:rgb(191,172,121);"/>
                </g>
                <g transform="matrix(0.436846,0,0,0.436846,923.192,-4.35429)">
                    <path d="M2405.32,445.251L2397.64,440.096L2396.13,435.422L2398.02,429.504L2401.41,428.599L2405.32,428.599L2405.32,427.536L2403.8,426.659L2405.32,426.659L2407,428.599L2410.09,428.599L2424.52,439.267L2424.56,439.344L2424.6,439.267L2425.06,440.006L2425.52,439.267L2425.56,439.344L2425.6,439.267L2438.21,429.504L2443.12,428.599L2444.8,426.659L2446.32,426.659L2444.8,427.536L2444.8,428.599L2448.71,428.599L2452.1,429.504L2453.99,435.422L2452.48,440.096L2444.8,445.251L2438.21,445.251L2436.17,448.429L2431.3,461.293L2433.27,450.566L2429.16,445.251L2428.93,446.255L2428.99,446.358L2428.63,447.543L2425.56,460.91L2425.06,459.278L2424.56,460.91L2421.49,447.543L2421.13,446.358L2421.19,446.255L2420.96,445.251L2416.15,451.476L2417.92,461.102L2411.91,445.251L2405.32,445.251Z" style="fill:rgb(194,162,118);"/>
                </g>
                <g transform="matrix(0.401415,0,0,0.436846,1006.42,-1.73322)">
                    <path d="M2422.1,417.861L2431.27,416.861L2440.39,417.861L2445.06,428.775L2448.17,430.639L2438.43,440.581L2434.54,434.784L2431.27,440.581L2428.16,434.784L2424.06,440.581L2414.32,430.639L2417.43,428.775L2422.1,417.861Z" style="fill:rgb(197,167,139);"/>
                </g>
                <g transform="matrix(0.436846,0,0,0.436846,923.192,-4.35429)">
                    <path d="M2399.55,413.054L2397.19,415.687L2394.44,420.48L2391.05,423.399L2386.49,434.373L2385.6,442.569L2386.49,444.77L2389.98,444.77L2388.64,440.976L2389.98,437.048L2393.03,435.849L2395.9,435.849L2397.19,432.322L2400.38,431.343L2409.45,432.322L2407.67,430.765L2409.45,429.541L2405.56,429.541L2400.38,428.223L2400.38,424.495L2403.49,417.407L2405.56,413.054L2411.98,410.462L2405.56,410.462L2399.55,413.054Z" style="fill:rgb(208,198,173);"/>
                </g>
                <g transform="matrix(-0.436846,0,0,0.436846,3041.4,-4.24265)">
                    <path d="M2399.55,413.054L2397.19,415.687L2394.44,420.48L2391.05,423.399L2386.49,434.373L2385.6,442.569L2386.49,444.77L2389.98,444.77L2388.64,440.976L2389.98,437.048L2393.03,435.849L2395.9,435.849L2397.19,432.322L2400.38,431.343L2408.6,432.322L2407.67,431.386L2408.6,430.446L2405.56,429.541L2400.38,428.223L2400.38,424.495L2403.49,417.407L2405.56,413.054L2411.98,410.462L2405.56,410.462L2399.55,413.054Z" style="fill:rgb(208,198,173);"/>
                </g>
                <g transform="matrix(1,0,0,1,0.613247,0)">
                    <g transform="matrix(0.436846,0,0,0.436846,923.192,-4.35429)">
                        <path d="M2414.47,440.349L2397.86,436.068L2400.16,441.308L2405.78,444.047L2411.92,445.269L2414.47,442.758L2414.47,440.349Z" style="fill:rgb(207,190,173);"/>
                    </g>
                    <g transform="matrix(0.282411,0,0,-0.275318,1294.83,303.97)">
                        <path d="M2417.52,424.581L2414.88,427.256L2413.83,430.907L2410.8,434.665L2409.22,431.962L2399.58,433.314L2393.33,429.586L2384.22,429.586L2380.5,427.256L2386.95,428.678L2392.73,428.033L2396.99,421.703L2404.46,417.955L2413.83,418.535L2417.52,418.535L2419.48,414.973L2419.48,420.378L2417.52,424.581Z" style="fill:rgb(59,59,59);"/>
                    </g>
                    <g transform="matrix(0.234069,0,0,-0.228191,1411.11,283.971)">
                        <path d="M2418.18,422.804L2413.27,429.372L2410.13,431.65L2398.4,432.926L2393.1,429.407L2396.48,422.03L2404.66,417.672L2415.41,419.3L2417.33,419.3L2418.18,422.804Z" style="fill:rgb(187,143,65);"/>
                    </g>
                    <g transform="matrix(0.0799206,0,0,-0.119745,1781.89,237.909)">
                        <path d="M2417.33,426.143L2410.67,432.019L2395.1,432.019L2391.22,424.083L2405.82,416.692L2419.35,418.083L2417.33,426.143Z" style="fill:rgb(11,5,3);"/>
                    </g>
                    <g transform="matrix(0.0765477,0,0,-0.119745,1788.96,237.244)">
                        <path d="M2417.33,426.143L2410.97,429.426L2398.3,429.426L2395.41,420.721L2405.2,418.083L2417.33,419.427L2417.33,426.143Z" style="fill:white;"/>
                    </g>
                </g>
                <g transform="matrix(1,0,0,1,-0.389963,0.167463)">
                    <g transform="matrix(-0.436846,0,0,0.436846,3041.41,-4.35429)">
                        <path d="M2414.47,440.349L2397.86,436.068L2400.16,441.308L2405.78,444.047L2411.92,445.269L2414.47,442.758L2414.47,440.349Z" style="fill:rgb(207,190,173);"/>
                    </g>
                    <g transform="matrix(-0.282411,0,0,-0.275318,2669.77,303.97)">
                        <path d="M2418.16,423.565L2414.88,427.256L2413.83,430.907L2410.8,434.665L2409.22,431.962L2399.58,433.314L2393.33,429.586L2384.22,429.586L2380.5,427.256L2386.95,428.678L2392.73,428.033L2396.99,421.703L2404.46,417.955L2413.83,418.535L2417.52,418.535L2419.48,414.973L2419.48,420.378L2418.16,423.565Z" style="fill:rgb(59,59,59);"/>
                    </g>
                    <g transform="matrix(-0.234069,0,0,-0.228191,2553.49,283.971)">
                        <path d="M2417.33,422.868L2413.27,429.372L2410.13,431.65L2398.4,432.926L2393.1,429.407L2396.48,422.03L2404.66,417.672L2415.41,419.3L2417.33,419.3L2417.33,422.868Z" style="fill:rgb(187,143,65);"/>
                    </g>
                    <g transform="matrix(-0.0799206,0,0,-0.119745,2182.71,237.909)">
                        <path d="M2417.33,426.143L2410.67,432.019L2395.1,432.019L2391.22,424.083L2405.82,416.692L2419.35,418.083L2417.33,426.143Z" style="fill:rgb(11,5,3);"/>
                    </g>
                    <g transform="matrix(-0.0765477,0,0,-0.119745,2173.8,237.244)">
                        <path d="M2417.33,426.143L2410.97,429.426L2398.3,429.426L2395.41,420.721L2405.2,418.083L2417.33,419.427L2417.33,426.143Z" style="fill:white;"/>
                    </g>
                </g>
                <g transform="matrix(0.436846,0,0,0.436846,920.552,-4.54556)">
                    <path d="M2430.61,459.166L2431.21,458.824L2434.28,459.695L2435.66,460.861L2437.15,465.529L2436.71,470.256L2435.08,469.717L2433.6,471.727L2431.05,472.239L2430.61,471.839L2430.17,472.239L2427.61,471.727L2426.14,469.717L2424.54,470.256L2424.06,465.529L2425.55,460.861L2426.93,459.695L2430,458.824L2430.61,459.166Z" style="fill:rgb(97,82,67);"/>
                </g>
                <g transform="matrix(0.436846,0,0,0.436846,923.192,-4.35429)">
                    <path d="M2424.18,416.671L2434.58,414.348L2440.62,415.647L2442.97,420.725L2437.01,420.725L2434.58,424.145L2435.09,431.732L2429.46,437.574L2424.37,438.878L2424.33,438.962L2424.33,438.962L2424.32,438.95L2424.32,438.962L2424.31,438.962L2424.18,438.928L2424.05,438.962L2424.04,438.962L2424.04,438.95L2424.03,438.962L2424.03,438.962L2423.99,438.878L2418.9,437.574L2413.27,431.732L2413.78,424.145L2411.35,420.725L2405.39,420.725L2407.74,415.647L2413.78,414.348L2424.18,416.671Z" style="fill:rgb(201,165,108);"/>
                </g>
                <g transform="matrix(0.436846,0,0,0.436846,923.192,-4.35429)">
                    <path d="M2405.34,411.79L2399.84,413.549L2395.5,420.479L2391.8,423.587L2388.92,434.727L2394.26,433.751L2396.71,431.493L2399.84,430.382L2398.85,424.777L2405.34,411.79Z" style="fill:rgb(220,220,220);"/>
                </g>
                <g transform="matrix(-0.436846,0,0,0.436846,3041.4,-4.24265)">
                    <path d="M2405.34,411.79L2399.84,413.549L2395.5,420.479L2391.8,423.587L2388.92,434.727L2394.26,433.751L2396.71,431.493L2399.84,430.382L2398.85,424.777L2405.34,411.79Z" style="fill:rgb(220,220,220);"/>
                </g>
            </g>
        </g>
    </g>
</svg>
